<?xml version="1.0" encoding="utf-8"?>
<!-- Generator: Adobe Illustrator 19.0.0, SVG Export Plug-In . SVG Version: 6.00 Build 0)  -->
<svg version="1.1" id="Capa_1" focusable="false" xmlns="http://www.w3.org/2000/svg" xmlns:xlink="http://www.w3.org/1999/xlink"
	 x="0px" y="0px" viewBox="-29.9 187.5 540.6 524.7" style="enable-background:new -29.9 187.5 540.6 524.7;" xml:space="preserve">
<style type="text/css">
	.st0{fill:#5C328A;}
	.st1{fill:#221C42;}
	.st2{fill:#6CBF9F;}
	.st3{fill:#E6E6E6;}
</style>
<g>
	<path class="st0" d="M496.5,400.5c0.1,2.4,0.2,4.9,0.2,7.3c0,114.9-114.6,208-256,208c-32.8,0-64-5.2-92.9-14.3
		c-29.1,20.6-77.6,46.3-139.1,46.3c-0.6,0-1.3,0-1.9-0.1c-3.9,4.7-6.5,7.5-6.6,7.6c-6.6,7-8.4,17.2-4.6,26S8,695.9,17.6,695.9
		c61.5,0,110-25.7,139.1-46.3c28.9,9.1,60.1,14.3,92.9,14.3c141.4,0,248.1-77,248.1-191.9C497.8,452.9,499.4,420,496.5,400.5z"/>
	<g>
		<path class="st1" d="M484,400.5c0.3,6.8,0.2,13.6-0.3,20.5c-0.1,1.4-0.2,2.9-0.4,4.3c-0.1,0.7-0.5,4-0.4,3.2
			c0.1-0.8-0.4,2.6-0.5,3.2c-0.3,1.6-0.5,3.2-0.8,4.8c-2.2,11.4-5.5,22.6-9.9,33.4c-0.5,1.3,0,0.1,0.1-0.2c-0.3,0.8-0.6,1.5-1,2.2
			c-0.6,1.3-1.2,2.6-1.8,3.9c-1.3,2.8-2.7,5.5-4.1,8.2c-2.7,5.1-5.7,10-8.8,14.9c-1.6,2.4-3.2,4.8-4.9,7.2c-0.9,1.2-1.7,2.4-2.6,3.5
			c-1.5,2-0.3,0.5-1.9,2.4c-3.9,4.8-7.8,9.4-12.1,13.8c-17.5,18.4-35.6,31.8-58,44.1c-23.4,12.7-47.6,21.3-74.3,27
			c-28.9,6.1-59.3,7.8-89.6,5c-16.5-1.5-32.9-4.6-49-8.9c-4-1.1-7.8-2.4-11.8-3.4c-5.7-1.4-9.6,0.4-14.1,3.5
			c-4.6,3.1-9.2,6.1-14,8.9c-24.3,14.5-49.4,24.5-77.4,29.7c-7.7,1.5-15.5,2.4-23.3,2.9c-4.2,0.3-8.4,0.5-12.7,0.5
			c-2.9,0-5.7-0.2-8.5,1c-2.9,1.3-4.6,3.4-6.7,5.7c-3.8,4.4-7.9,8.4-10.4,13.7c-3.8,8.1-4.9,17.4-2.4,26c5,17.1,20.7,26.7,37.9,26.5
			c17.3-0.2,34.6-2.4,51.4-6.3c27.5-6.4,53.9-17.9,77.9-32.8c4.5-2.8,9-5.8,13.3-8.9c-3.2,0.4-6.4,0.8-9.6,1.3
			c75.5,23.5,161.7,19.3,234.1-13.1c56.6-25.3,104-72.8,118-134.6c4-17.5,4.5-35,4.8-52.8c0.3-21.3,1.2-42.8-1.8-64
			c-1-6.7-9.5-10.4-15.4-8.7c-7.2,2-9.7,8.7-8.7,15.4c-0.4-2.7,0.1,1.4,0.2,1.6c0.1,1.3,0.3,2.6,0.4,4c0.2,2.8,0.4,5.7,0.5,8.5
			c0.3,6.7,0.3,13.3,0.3,20c-0.1,11.8-0.4,23.6-0.4,35.3c-0.2,19.8-3,36.8-10.6,56.5c-1.7,4.4-2.2,5.5-4.8,10.8
			c-2.2,4.5-4.6,8.9-7.2,13.2c-2.2,3.6-4.6,7.2-7,10.6c-2.8,3.9-4.2,5.7-8.1,10.3c-13.8,15.9-27.3,27-44.4,37.5
			c-37.2,22.9-81.2,34.9-124.6,38.2c-28.1,2.2-56.4,1.3-84.1-4.1c-7-1.4-13.9-2.9-20.8-4.8c-8.3-2.2-17-6.9-24.9-1.4
			c-8,5.5-16.2,10.7-24.8,15.3c-24.1,13.1-50,22.3-77.8,26.2c-8.2,1.1-16.5,1.7-24.8,1.8c-6.1,0.1-9.5,0-13.2-4.8
			c-1.9-2.4-2.6-7.8-1.4-10.7c1.6-3.9,5.8-7.5,8.9-11.2c-2.9,1.2-5.9,2.4-8.8,3.7c29,1.2,59.2-5.3,86.2-15.5
			c21.6-8.2,42.2-19.1,61.1-32.4c-3.2,0.4-6.4,0.8-9.6,1.3c68.3,21.3,144.4,19.9,211.1-6.4c54.7-21.6,104.7-59.6,132.1-112.6
			c15-29,22.6-61.4,21.4-94.1c-0.3-6.7-5.6-12.5-12.5-12.5C489.9,388,483.7,393.8,484,400.5z"/>
	</g>
</g>
<g>
	<path class="st0" d="M67.8,636.3c-1.8,0.4-3.1-2.4-4.9-2.4c-9.3,0-38.3-0.3-73.7-5.7c-2.4-0.4-4.7,1.5-4.8,3.9l-1.8,55.8
		c0,1.4,0.6,2.8,1.8,3.6c6.3,4.1,32,19.2,100.3-5.9c2.6-1,10.4-3.5,10.4-3.5"/>
	<g>
		<path class="st1" d="M67.8,623.8c-0.3,0-0.6,0-0.9-0.1c2.1,0.6,4.2,1.1,6.3,1.7c0.3,0.1,2.3,1.6,0.2,0.3c-1-0.6-1.9-1.6-2.9-2.2
			c-2.3-1.4-4.9-2-7.6-2.2c-1.5-0.1-3.1,0-4.6,0c-5-0.1-10-0.2-15.1-0.4c-14.7-0.7-29.3-1.9-43.9-3.9c-4.9-0.7-10.3-2.3-15.2-0.8
			c-5.4,1.6-10,5.8-11.5,11.4c-0.7,2.5-0.7,5.1-0.8,7.6c-0.2,7.6-0.5,15.2-0.7,22.8c-0.3,8.3-0.5,16.6-0.8,24.9
			c-0.1,1.6-0.2,3.3-0.2,4.9c0.2,6.6,3.6,11.7,9.1,15.1c10.7,6.7,24.2,8.9,36.6,9.2c28.8,0.7,55.8-9.3,82.7-18.1
			c6.4-2.1,10.6-8.6,8.7-15.4c-1.7-6.3-8.9-10.8-15.4-8.7c-10.7,3.5-21.2,7.5-32.1,10.6c-6.3,1.8-12.8,3.3-19.3,4.5
			c-1.3,0.2-2.7,0.5-4,0.7c-0.6,0.1-3.6,0.5-2.8,0.4c0.8-0.1-2,0.2-2.6,0.3c-1.5,0.2-3,0.3-4.6,0.4c-4.2,0.3-8.4,0.4-12.6,0.2
			c-1.7-0.1-3.4-0.2-5.2-0.4c-2.9-0.3,0.1,0.1-0.2,0c-0.8-0.2-1.7-0.3-2.5-0.4c-2.6-0.5-5.1-1.1-7.6-1.9c-1.1-0.3-2.1-0.8-3.2-1.1
			c-1.8-0.6,2.9,1.4,1.3,0.6c-0.4-0.2-0.9-0.4-1.3-0.6c-1.2-0.6-2.5-1.6-3.7-2c-3-1,3.9,5.7,3.5,6.5c0.2-0.4,0-1.2,0.1-1.6
			c0.7-6.3,0.4-12.9,0.6-19.2c0.3-8,0.5-16.1,0.8-24.1c0.1-2.8,0.2-5.5,0.3-8.3c0-0.6,0.2-1.4,0.1-1.9c0-0.1,0.1-0.3,0-0.4
			c-0.1-0.2-9,8.4-9.1,8.3c0.6,0.5,3.1,0.4,3.9,0.6c16.4,2.3,33,4,49.6,4.8c5.1,0.2,10.2,0.4,15.4,0.5c1.3,0,4.3,0.6,5.4,0
			c1.1-0.6-5.6-1.6-5.5-2.3c0,0.5,3,2.4,3.3,2.6c2.5,1.5,5.1,2,8,2.2c6.7,0.4,12.5-6.1,12.5-12.5C80.3,629.1,74.5,624.2,67.8,623.8
			L67.8,623.8z"/>
	</g>
</g>
<g>
	<path class="st2" d="M147.7,601.6c28.9,9.1,60.1,14.3,92.9,14.3c141.4,0,256-93.1,256-208c0-2.5-0.1-4.9-0.2-7.3
		C491.7,289,379,199.9,240.6,199.9c-141.4,0-256,93.1-256,208c0,19.1,3.2,37.5,9.2,55c8.9,26.2,24,50.3,43.7,71.3
		c-3.1,8.2-6.9,16.1-10.9,23.5C11.1,586-8.5,607.1-8.9,607.4c-6.6,7-8.4,17.2-4.6,26c3.6,8.2,11.4,13.7,20.2,14.4
		c0.6,0,1.2,0.1,1.9,0.1C70.1,647.9,118.6,622.2,147.7,601.6z"/>
	<g>
		<path class="st1" d="M144.4,613.6c94.9,29.6,204.1,14.6,283-47.4c32.3-25.4,58-59.3,71.6-98.2c13.6-39,13.4-82.7-0.4-121.5
			c-29.7-83.4-111.5-137.1-195.9-153.2c-91.2-17.4-192.1,3.8-261.8,67.1c-30,27.3-53.3,62.9-63.2,102.5
			C-34.9,413.6-24.9,467.4,3.5,511c7.4,11.4,15.9,22.1,25.2,32c-1.1-4.1-2.1-8.1-3.2-12.2C17.6,551.4,4,572.3-8.7,588
			c-2.9,3.6-5.9,7-9,10.5c-8.3,9.4-12.2,21.5-9.2,33.9c2.8,12,11.7,21.3,23,25.6c10.9,4.2,24.5,2.3,35.8,1.1
			c23.1-2.4,45.7-8,67.3-16.8c19.4-8,37.7-17.9,54.8-29.9c5.5-3.9,8.1-10.9,4.5-17.1c-3.2-5.5-11.6-8.4-17.1-4.5
			c-29.4,20.7-61.2,35.1-96.6,41.5c-10.4,1.9-21,2.8-31.6,3.1c-8.1,0.2-13.4-1-15.6-8.1c-1.4-4.3-0.2-8.1,3.3-11.9
			c3.6-4,7.1-8.2,10.4-12.4c15.7-20,29.2-41.5,38.3-65.4c1.6-4.2-0.4-9.1-3.2-12.2C12.2,488.7-7.1,440.9-2,390.5
			c0.1-1.2,0.3-2.5,0.4-3.7c-0.3,2.2,0.1-0.4,0.1-1c0.3-2.2,0.7-4.5,1.1-6.7c0.9-4.8,2-9.6,3.4-14.3c1.2-4.3,2.6-8.6,4.1-12.8
			c0.7-1.9,1.5-3.8,2.2-5.7c1.4-3.7-1,2.1,0.6-1.5c0.5-1.1,1-2.2,1.5-3.4c3.9-8.6,8.5-16.9,13.7-24.8c5.7-8.7,9.5-13.7,16.3-21.3
			c55.7-62.9,143.5-89.1,226.7-81.8c41.6,3.6,83.4,16.6,119.4,38.5c32.2,19.6,59.3,46,77.1,79.3c4.9,9.3,7.3,14.7,10.5,24
			c3,8.7,5.3,17.7,6.8,26.8c0.2,1,0.3,2,0.5,3c0,0.2,0.5,4.2,0.2,1.6c0.2,2.1,0.5,4.1,0.6,6.2c0.5,5.8,0.7,11.6,0.6,17.3
			c-0.2,10.5-0.9,17.3-2.6,26.2c-3.6,18.9-9.2,33.9-17.9,49.7c-4.6,8.3-9.8,16.3-15.5,23.9c-2.4,3.2,0.7-0.9-0.7,0.9
			c-0.6,0.8-1.3,1.6-2,2.5c-1.6,2-3.2,3.9-4.9,5.8c-3.2,3.7-6.6,7.2-10,10.7c-27.9,27.9-63.4,48-101.1,59.8
			c-45.2,14.2-93.4,17.5-140.6,9c-12.8-2.3-25.4-5.5-37.9-9.4C135.7,584.7,129.1,608.9,144.4,613.6z"/>
	</g>
</g>
<g>
	<g>
		<path class="st3" d="M232.9,272.5c3.9-0.3,7.9-0.2,11.9-0.1c4.4,0.1,8.7,0.4,13.1,0.8c2.7,0.2,5.3,0.6,8,0.9
			c3.4,0.4-5.6-0.8-2.2-0.3c0.5,0.1,1.1,0.2,1.6,0.2c1.8,0.3,3.5,0.5,5.3,0.9c14.1,2.4,28,6.2,41.4,11.3c1.7,0.6,3.3,1.4,5,2
			c-6.5-2.3,0.7,0.4,2.3,1.1c3.8,1.7,7.5,3.6,11.2,5.6c8.1,4.4,15.8,9.4,23.2,14.8c1.8,1.3,0,1.1-1.1-0.9c0.6,1.1,2.9,2.3,3.9,3.2
			c2,1.6,3.9,3.3,5.8,5c4.1,3.7,8,7.6,11.7,11.6c2,2.2,4,4.4,5.8,6.7c0.7,0.9,1.5,1.8,2.2,2.7c3.2,4-1.6-2.3,0.8,1
			c3.7,5.2,7.3,10.4,10.6,15.8c5.4,9,18.2,13.1,27.4,7.2c9-5.8,13-17.8,7.2-27.4c-21.9-36.3-54.5-65.5-93.5-82.2
			c-27.3-11.7-56.1-18.5-85.8-19.9c-5.2-0.2-10.4-0.4-15.6-0.1c-10.4,0.7-20.5,8.7-20,20C213.3,262.8,221.7,273.3,232.9,272.5
			L232.9,272.5z"/>
	</g>
</g>
<g>
	<path class="st2" d="M428.3,397.4c0,0,13.3,14.9,6.6,41.5"/>
	<g>
		<path class="st3" d="M414.2,411.6c1.2,1.4-2.5-3.2-2.5-3.3c0,0,1.2,1.7,1.3,1.8c0.6,0.9,1.1,1.9,1.7,2.9c0.3,0.6,0.6,1.7,1.1,2.2
			c-0.6-0.8-1.8-4.9-0.8-1.7c0.5,1.7,1.1,3.4,1.5,5.2c0.2,0.7,0.2,2.5,0.6,3c-0.8-1.1-0.5-4.5-0.2-0.8c0.2,2.4,0.1,4.8,0,7.3
			c-0.2,2.4,0.3,2.8,0,0.3c0.2,1.6-0.7,3.7-1.1,5.2c-2.4,10.2,3.2,22.1,14,24.6c10.3,2.3,22-3.1,24.6-14c5-20.7,2.8-44.4-11.7-61
			c-6.9-7.9-21.3-7.6-28.3,0C406.5,391.7,406.8,403.2,414.2,411.6L414.2,411.6z"/>
	</g>
</g>
</svg>
