<?xml version="1.0" encoding="utf-8"?>
<!-- Generator: Adobe Illustrator 19.0.0, SVG Export Plug-In . SVG Version: 6.00 Build 0)  -->
<svg version="1.1" id="Capa_1" xmlns="http://www.w3.org/2000/svg" xmlns:xlink="http://www.w3.org/1999/xlink" x="0px" y="0px"
	 viewBox="0 0 150.1 127.8" style="enable-background:new 0 0 150.1 127.8;" xml:space="preserve">
<style type="text/css">
	.st0{fill:#6DBF9E;}
	.st1{fill:#221C42;}
	.st2{fill:#5C328A;}
	.st3{fill:#E5E5E4;}
</style>
<g id="XMLID_6_">
	<g id="XMLID_26_">
		<path id="XMLID_75_" class="st0" d="M130.4,109h-16.2V30.1c0-6.4-4.4-11.7-9.7-11.7H75.2v14.9l26,0.1v90.6h29.2
			c1.8,0,3.2-1.7,3.2-3.8v-7.5C133.7,110.7,132.2,109,130.4,109z M67.1,3.6l-39,11.7c-2.9,0.9-4.9,4-4.9,7.6V109H7
			c-1.8,0-3.2,1.7-3.2,3.8v7.5c0,2.1,1.5,3.8,3.2,3.8h68.2V11.2C75.2,6.1,71.2,2.3,67.1,3.6z M57.3,71.3c-2.7,0-4.9-3.4-4.9-7.5
			s2.2-7.5,4.9-7.5c2.7,0,4.9,3.4,4.9,7.5S60,71.3,57.3,71.3z"/>
		<g id="XMLID_65_">
			<path id="XMLID_74_" class="st1" d="M130.4,105.5c-5.4,0-10.8,0-16.2,0c1.2,1.2,2.3,2.3,3.5,3.5c0-16.9,0-33.8,0-50.7
				c0-8.6,0-17.1,0-25.7c0-8.9-4-17.2-13.9-17.6c-9.5-0.3-19.1,0-28.6,0c-1.9,0-3.5,1.6-3.5,3.5c0,5,0,10,0,14.9
				c0,1.9,1.6,3.5,3.5,3.5c8.7,0,17.3,0.1,26,0.1c-1.2-1.2-2.3-2.3-3.5-3.5c0,26.4,0,52.9,0,79.3c0,3.8,0,7.5,0,11.3
				c0,1.9,1.6,3.5,3.5,3.5c9.3,0,18.7,0.3,28,0c5.1-0.2,7.8-3,8-8.1c0.2-5.2,0.8-12.6-5.8-13.8c-4.4-0.8-6.3,5.9-1.9,6.7
				c1.3,0.2,0.9,8,0.5,8.2c-1.4,1-7.3,0-8.9,0c-6.7,0-13.3,0-20,0c1.2,1.2,2.3,2.3,3.5,3.5c0-26.4,0-52.9,0-79.3c0-3.8,0-7.5,0-11.3
				c0-1.9-1.6-3.5-3.5-3.5c-8.7,0-17.3-0.1-26-0.1c1.2,1.2,2.3,2.3,3.5,3.5c0-5,0-10,0-14.9c-1.2,1.2-2.3,2.3-3.5,3.5
				c8.2,0,16.4,0,24.7,0c4.9,0,9.4,0.1,10.6,6.2c0.3,1.7,0.2,3.6,0.2,5.4c0,19,0,37.9,0,56.9c0,6.2,0,12.4,0,18.6
				c0,1.9,1.6,3.5,3.5,3.5c5.4,0,10.8,0,16.2,0C134.9,112.5,135,105.5,130.4,105.5z"/>
			<path id="XMLID_73_" class="st1" d="M66.2,0.2C56.9,3,47.7,5.8,38.5,8.6c-8.5,2.6-18.4,3.7-18.7,14.9c-0.6,20.5,0,41.2,0,61.8
				c0,7.9,0,15.9,0,23.8c1.2-1.2,2.3-2.3,3.5-3.5c-3.8,0-7.6,0-11.4,0c-3.7,0-7.8-0.6-10.2,2.9c-2.1,3-1.6,8.3-1.4,11.8
				c0.3,4.2,2.8,7.1,7,7.3c6.1,0.4,12.3,0,18.4,0c10.1,0,20.2,0,30.3,0c6.4,0,12.8,0,19.2,0c1.9,0,3.5-1.6,3.5-3.5
				c0-35.6,0-71.2,0-106.8c0-2,0.1-4,0-5.9C78.4,4.3,73.5-1.1,66.2,0.2C61.8,1,63.6,7.8,68.1,7c5.1-0.9,3.6,11.5,3.6,14.1
				c0,8.8,0,17.7,0,26.5c0,20.7,0,41.4,0,62.1c0,4.8,0,9.6,0,14.4c1.2-1.2,2.3-2.3,3.5-3.5c-12.2,0-24.4,0-36.6,0
				c-7.8,0-15.5,0-23.3,0c-2.1,0-4.8,0.4-6.9,0c-2.2-0.4-1.2-0.8-1.2-3.6c0-0.9-0.3-4.2,0-4.5c0.7-0.6,4.1,0,5,0c3.7,0,7.3,0,11,0
				c1.9,0,3.5-1.6,3.5-3.5c0-18,0-35.9,0-53.9c0-9.5,0-18.9,0-28.4c0-2.6-0.5-6.2,2-7.9c2.4-1.5,6.4-2,9.1-2.8C47.9,13,58,10,68.1,7
				C72.4,5.7,70.5-1.1,66.2,0.2z"/>
			<path id="XMLID_72_" class="st1" d="M57.3,67.8c-1.9-0.2-1.9-7.9,0-8.1C59,59.5,59.4,67.6,57.3,67.8c-4.4,0.4-4.5,7.4,0,7
				c11-1.1,11.3-22.1,0-22.1c-11.3,0-11,21,0,22.1C61.8,75.2,61.8,68.2,57.3,67.8z"/>
		</g>
	</g>
	<g id="XMLID_23_">
		<polygon id="XMLID_52_" class="st2" points="75.9,124.1 101.9,124.1 101.9,34 75.9,33.9 		"/>
		<g id="XMLID_47_">
			<path id="XMLID_51_" class="st1" d="M75.9,127.6c8.7,0,17.3,0,26,0c1.9,0,3.5-1.6,3.5-3.5c0-26.3,0-52.6,0-78.8
				c0-3.7,0-7.5,0-11.2c0-1.9-1.6-3.5-3.5-3.5c-8.7,0-17.3-0.1-26-0.1c-1.9,0-3.5,1.6-3.5,3.5c0,26.3,0,52.6,0,79
				c0,3.7,0,7.5,0,11.2c0,4.5,7,4.5,7,0c0-26.3,0-52.6,0-79c0-3.7,0-7.5,0-11.2c-1.2,1.2-2.3,2.3-3.5,3.5c8.7,0,17.3,0.1,26,0.1
				c-1.2-1.2-2.3-2.3-3.5-3.5c0,26.3,0,52.6,0,78.8c0,3.7,0,7.5,0,11.2c1.2-1.2,2.3-2.3,3.5-3.5c-8.7,0-17.3,0-26,0
				C71.4,120.6,71.4,127.6,75.9,127.6z"/>
		</g>
	</g>
	<g id="XMLID_35_">
		<g id="XMLID_34_">
			<path id="XMLID_39_" class="st3" d="M42.5,29.7c6.9-1.8,13.8-3.7,20.7-5.5c-2.1-1.6-4.2-3.2-6.3-4.8c0,5.9,0,11.9,0,17.8
				c0,6.4,10,6.4,10,0c0-5.9,0-11.9,0-17.8c0-3.3-3.2-5.7-6.3-4.8c-6.9,1.8-13.8,3.7-20.7,5.5C33.6,21.7,36.3,31.3,42.5,29.7
				L42.5,29.7z"/>
		</g>
	</g>
	<g id="XMLID_27_">
		<g id="XMLID_17_">
			<path id="XMLID_32_" class="st3" d="M57.6,86.2c0,6.1,0,12.2,0,18.3c0,6.4,10,6.4,10,0c0-6.1,0-12.2,0-18.3
				C67.6,79.8,57.6,79.8,57.6,86.2L57.6,86.2z"/>
		</g>
	</g>
	<g id="XMLID_54_">
		<g id="XMLID_59_">
			<path id="XMLID_42_" class="st3" d="M145.4,70.2h-17.8c-1.2,0-2.1,1-2.1,2.3v18.6c0,1.3-1,2.3-2.1,2.3h-11.2
				c-1.2,0-2.1-1-2.1-2.3V72.5c0-1.3-1-2.3-2.1-2.3H90c-1.2,0-2.1-1-2.1-2.3V57.4c0-1.3,1-2.3,2.1-2.3h17.8c1.2,0,2.1-1,2.1-2.3
				V34.2c0-1.3,1-2.3,2.1-2.3h11.2c1.2,0,2.1,1,2.1,2.3v18.6c0,1.3,1,2.3,2.1,2.3h17.8c1.2,0,2.1,1,2.1,2.3v10.5
				C147.5,69.2,146.6,70.2,145.4,70.2z"/>
			<g id="XMLID_28_">
				<path id="XMLID_41_" class="st1" d="M145.4,67.7c-3.6,0-7.3,0-10.9,0c-2.8,0-7.4-0.9-9.8,1c-2.6,2-1.8,6.3-1.8,9.2
					c0,2.4,0,4.9,0,7.3c0,1.1,0.6,4.5,0,5.5c-0.4,0.7,0.5-0.2-0.1,0.2c-0.3,0.3-2.4,0-2.8,0c-1.9,0-5.2,0.7-7,0
					c-0.9-0.3-0.5,0.3-0.6-1.4c0-2.2,0-4.5,0-6.8c0-3.4,0.5-7.2,0-10.6c-0.6-4.3-4.1-4.5-7.6-4.5c-4.4,0-8.9,0.3-13.2,0
					c-1.9-0.1-1.1,0.5-1.3-1.1c-0.2-2.4,0.1-4.8,0-7.1c-0.1-2.1-0.5-1.5,0.7-1.8c1.8-0.5,4.5,0,6.4,0c3.4,0,7.3,0.5,10.7,0
					c4-0.7,4.3-4,4.3-7.3c0-4.6,0-9.3,0-13.9c0-0.4-0.2-1.6,0-1.9c0.2-0.4-0.6,0.3,0.3-0.1c1.6-0.7,5.1,0,6.8,0c1.2,0,3.3,0,3.3,0.1
					c0.6,0.9,0,4.1,0,5.2c0,4.3-0.5,8.9,0,13.1c0.5,4.5,3.9,4.9,7.6,4.9c2.8,0,5.6,0,8.4,0c1.3,0,4.9-0.7,6,0
					c0.6,0.4-0.3-0.4,0.1,0.5c0.3,0.8,0,2.7,0,3.6c0,0.9,0.5,5.9-0.3,6.1c-3.1,0.9-1.8,5.7,1.3,4.8c5.1-1.5,4-7.2,4-11.4
					c0-3.9,0.1-8-4.8-8.6c-4.5-0.5-9.3,0-13.9,0c-0.8,0-3.6-0.1-3.4,0.1c-0.6-0.8,0-4.4,0-5.4c0-4.3,0.5-8.9,0-13.1
					c-0.6-5.3-5.1-4.9-9.2-4.9c-3.8,0-9.6-1.2-11,3.6c-1.1,3.8-0.2,8.7-0.2,12.5c0,1.9,0.4,4.4,0,6.3c-0.3,1.3,0.3,0.8-1.9,0.8
					c-4.8,0-9.7-0.3-14.5,0c-4.4,0.3-5.7,2.7-5.7,6.8c0,3.4-1.3,10.1,2,12.4c2.9,2,8.8,0.9,12,0.9c2.3,0,4.5-0.1,6.8,0
					c1.8,0,1.3-0.4,1.3,1.4c-0.1,5,0,9.9,0,14.9c0,3.9,1,6.6,5.3,7c3.5,0.3,11.6,1.4,14.1-1.9c2.3-3.1,1-9.7,1-13.2
					c0-2.2-0.6-5.4,0-7.5c0.3-1.1-0.5-0.3,0.1-0.6c0.5-0.3,2,0,2.5,0c5,0,9.9,0,14.9,0C148.6,72.7,148.6,67.7,145.4,67.7z"/>
			</g>
		</g>
	</g>
</g>
</svg>
