<?xml version="1.0" encoding="utf-8"?>
<!-- Generator: Adobe Illustrator 19.0.0, SVG Export Plug-In . SVG Version: 6.00 Build 0)  -->
<svg version="1.1" xmlns="http://www.w3.org/2000/svg" xmlns:xlink="http://www.w3.org/1999/xlink" x="0px" y="0px"
	 viewBox="-391.2 438 235.6 150.1" style="enable-background:new -391.2 438 235.6 150.1;" xml:space="preserve">
<style type="text/css">
	.st0{fill:#272351;}
	.st1{fill:#272351;stroke:#272351;stroke-miterlimit:10;}
	.st2{fill:#343077;stroke:#272351;stroke-width:2;stroke-miterlimit:10;}
	.st3{fill:#272251;stroke:#272351;stroke-miterlimit:10;}
	.st4{fill:#272251;stroke:#272351;stroke-width:2;stroke-miterlimit:10;}
	.st5{fill:#5EA084;stroke:#5DA084;stroke-width:2;stroke-miterlimit:10;}
	.st6{fill:#6DBF9E;stroke:#5DA084;stroke-width:2;stroke-miterlimit:10;}
	.st7{fill:#272251;}
	.st8{fill:#5EA084;}
	.st9{fill:#6DBF9E;stroke:#5DA084;stroke-miterlimit:10;}
</style>
<g id="Capa_2">
	<polygon class="st0" points="-276.2,526.2 -273.3,531 -274.7,533.8 -279.3,531.2 	"/>
	<polygon class="st0" points="-295.7,526.5 -293.8,530.5 -295.1,531.7 -297.4,528.9 	"/>
	<polygon class="st0" points="-310.9,524.8 -309,529.7 -313,531.7 -313.5,527.6 	"/>
	<path class="st0" d="M-241.7,526.2l2,4l-2.9,0.5c0,0-0.4-3.8-0.4-3.8C-242.9,526.8-241.7,526.2-241.7,526.2z"/>
	<polygon class="st0" points="-245.2,546 -243.2,550 -245.6,551.2 -247.5,547.7 	"/>
	<polygon class="st0" points="-246.1,562.1 -245.4,563.4 -247.2,562.9 	"/>
	<polygon class="st0" points="-275.8,576.9 -277.7,573 -275.2,572.3 -273.4,573.2 	"/>
	<polygon class="st0" points="-213.3,575.2 -213.7,573.3 -212.2,573 -211,574.9 	"/>
</g>
<g id="Capa_1">
	<path id="XMLID_27_" class="st1" d="M-379.1,462.1c8.5-1.9,15.5-0.8,21,3.3c5.5,4.1,9.3,10.8,11.3,20.3c1.9,8.7,1.2,15.9-2.1,21.4
		c-3.3,5.6-9.3,9.3-17.8,11.2c-1.5,0.3-2.8,0.6-4.1,0.7c-1.3,0.2-2.4,0.2-3.5,0.2l-14.7-53.6C-386.3,464.1-383,463-379.1,462.1z
		 M-365.7,499.7c1.1-0.6,1.9-1.3,2.7-2.2c0.7-0.9,1.3-1.9,1.7-3.1c0.4-1.1,0.7-2.3,0.8-3.6c0.1-1.2,0-2.5-0.3-3.7s-0.7-2.3-1.4-3.3
		c-0.6-1-1.4-1.9-2.3-2.7c-0.9-0.7-1.9-1.3-3-1.7c-1.1-0.4-2.2-0.6-3.4-0.5L-365.7,499.7z"/>
	<path id="XMLID_3_" class="st2" d="M-380.1,457.1c8.5-1.9,15.5-0.8,21,3.3s9.3,10.8,11.3,20.3c1.9,8.7,1.2,15.9-2.1,21.4
		c-3.3,5.6-9.3,9.3-17.8,11.2c-1.5,0.3-2.8,0.6-4.1,0.7c-1.3,0.2-2.4,0.2-3.5,0.2l-14.7-53.6C-387.3,459.1-384,458-380.1,457.1z
		 M-366.7,494.7c1.1-0.6,1.9-1.3,2.7-2.2c0.7-0.9,1.3-1.9,1.7-3.1c0.4-1.1,0.7-2.3,0.8-3.6c0.1-1.2,0-2.5-0.3-3.7s-0.7-2.3-1.4-3.3
		c-0.6-1-1.4-1.9-2.3-2.7c-0.9-0.7-1.9-1.3-3-1.7c-1.1-0.4-2.2-0.6-3.4-0.5L-366.7,494.7z"/>
	<path id="XMLID_40_" class="st3" d="M-275.6,514.9h-15l-1.9-8.7h-7.9l-1.6,10.1h-14.5l11.4-50h18.9L-275.6,514.9z M-293.4,493.1
		l-2.6-13.7l-2.7,13.7H-293.4z"/>
	<path id="XMLID_30_" class="st3" d="M-218.9,462.5l-18.3,55.3l-14.9-1.9l-1.6-23.6l-7.9,22.8l-14.3-2.7l-2.6-55.6l14,0.9l0.6,24.7
		l8.9-24.5l11.6,2.4l1.9,25.8l8.2-25.5L-218.9,462.5z"/>
	<path id="XMLID_9_" class="st2" d="M-276.6,510.9h-15l-1.9-8.7h-7.9l-1.6,10.1h-14.5l11.4-50h18.9L-276.6,510.9z M-294.4,489.1
		l-2.6-13.7l-2.7,13.7H-294.4z"/>
	<path id="XMLID_12_" class="st2" d="M-220.3,458.7l-18.3,55.3l-14.9-1.9l-1.6-23.6l-7.9,22.8l-14.3-2.7l-2.6-55.6l14,0.9l0.6,24.7
		l8.9-24.5l11.6,2.4l1.9,25.8l8.2-25.5L-220.3,458.7z"/>
	<path id="XMLID_129_" class="st4" d="M-308.7,561c0,6.5-0.8,10.8-2.4,13c-3.6,5.1-9.6,7.6-17.8,7.6c-3.6,0-6.8-0.6-9.6-1.9
		c-2.8-1.3-5.2-3.2-7.2-5.7c-1.9-2.5-3.4-5.5-4.4-9.1s-1.5-7.6-1.5-12.2c0-13.6,4.9-22.5,14.6-26.7c3-1.3,6.1-2,9.4-2
		c5.8,0,11.6,1.7,17.4,5.2l-7.6,14.2c-1.6-2.2-4.9-3.3-9.9-3.3c-2.9,0-5.1,1.1-6.6,3.4c-1.5,2.3-2.2,5.5-2.2,9.5
		c0,2.1,0.2,4.1,0.6,5.8c0.4,1.8,1,3.3,1.7,4.6s1.7,2.3,2.7,3c1.1,0.7,2.3,1,3.7,1c4.1,0,6.2-1.5,6.2-4.6c0-0.3,0-0.5-0.1-0.6
		l-6.1-0.5l-0.9-14.1l18.9-0.5c0.3,2.3,0.6,4.6,0.7,6.9C-308.7,556.4-308.7,558.7-308.7,561z"/>
	<path id="XMLID_95_" class="st4" d="M-274.2,531l-0.4,32.2c0,2.5-0.4,4.9-1.1,7.2c-0.7,2.2-1.7,4.2-2.9,5.9c-1.2,1.7-2.7,3-4.4,4
		c-1.7,1-3.7,1.5-5.8,1.5c-2.5,0-4.8-0.4-7-1.3c-2.2-0.9-4.1-2.1-5.7-3.6s-2.9-3.4-3.9-5.5c-0.9-2.1-1.4-4.4-1.5-6.9l-0.5-33.2
		l12.7,0.2c0.5,18.7,0.8,29.3,0.8,31.7c0,2.8,1.1,4.2,3.3,4.2c1.8,0,2.8-1.9,2.8-5.7l0.5-30.5h13.1V531z"/>
	<path id="XMLID_61_" class="st4" d="M-247.3,580.4l-27.3-4.3l7.8-49.2l26,4.1l-2,12.6l-13.1-1.3l-0.6,6.6l12.2,1.9l-1.6,10.1
		l-11.4-1.8l-0.9,5.7l13,2.1L-247.3,580.4z"/>
	<path id="XMLID_51_" class="st4" d="M-214.2,574.5c-0.2,1.4-0.8,2.7-1.8,4s-2.1,2.5-3.4,3.4c-1.3,1-2.8,1.7-4.3,2.2s-3,0.6-4.4,0.4
		c-9.3-1.5-16-6.6-19.9-15.5l11.8-4.1c0.3,0.7,0.7,1.5,1.2,2.3s1.1,1.5,1.7,2.2c0.6,0.7,1.2,1.3,1.9,1.7c0.6,0.5,1.3,0.8,1.8,0.9
		c1.3,0.2,2.1-0.7,2.4-2.6c0.1-0.5,0-0.9-0.3-1.5c-0.3-0.5-0.7-1-1.3-1.6c-0.5-0.5-1.2-1.1-1.9-1.6c-0.7-0.6-1.4-1.1-2.1-1.7
		c-1.4-1.2-2.6-2.5-3.7-3.9c-1.1-1.4-2-2.9-2.7-4.4s-1.2-3.1-1.5-4.6c-0.3-1.6-0.3-3.1-0.1-4.6c0.3-2.1,1-3.9,2-5.5s2.2-2.9,3.7-4
		c1.5-1,3.1-1.7,5-2.2c1.9-0.4,3.9-0.4,5.9-0.1c1.6,0.3,3.2,0.7,4.7,1.3s2.9,1.4,4.2,2.3s2.4,1.9,3.3,3.1c0.9,1.1,1.6,2.3,2.1,3.5
		l-9.1,7.3c-0.3-0.7-0.6-1.4-1.1-2.1s-1-1.3-1.5-1.9c-0.6-0.6-1.1-1-1.8-1.4c-0.6-0.4-1.2-0.6-1.8-0.7c-2.1-0.3-3.3,0.7-3.7,2.9
		c-0.2,1.5,1,3.5,3.9,5.9c2,1.7,3.7,3.2,4.9,4.5c1.3,1.3,2.2,2.3,2.8,3.2C-214.4,565.7-213.4,569.9-214.2,574.5z"/>
	<path id="XMLID_31_" class="st4" d="M-173.3,572.1c0.1,1.6-0.1,3.2-0.8,4.9s-1.6,3.3-2.8,4.7s-2.6,2.6-4.1,3.6
		c-1.6,1-3.1,1.5-4.7,1.7c-10.7,0.9-19.4-3-26.1-11.6l11.9-7.7c0.5,0.7,1.2,1.5,2,2.2s1.6,1.4,2.4,2c0.8,0.6,1.7,1,2.5,1.4
		c0.9,0.4,1.6,0.5,2.3,0.5c1.5-0.1,2.1-1.3,1.9-3.5c0-0.5-0.3-1-0.8-1.5s-1.1-1-1.8-1.4s-1.6-0.9-2.5-1.3c-0.9-0.4-1.9-0.8-2.8-1.2
		c-1.9-0.9-3.6-2-5.2-3.2c-1.6-1.3-3-2.6-4.2-4.1s-2.2-3.1-2.9-4.7c-0.7-1.6-1.2-3.3-1.3-5.1c-0.2-2.4,0-4.6,0.7-6.7
		c0.7-2.1,1.7-3.9,3-5.4s3-2.8,5-3.7c2-1,4.1-1.5,6.5-1.7c1.9-0.2,3.7-0.1,5.6,0.2c1.9,0.3,3.6,0.7,5.2,1.4c1.6,0.7,3.1,1.5,4.5,2.5
		c1.3,1,2.4,2.1,3.2,3.3l-8.1,10.5c-0.5-0.7-1.1-1.4-1.8-2.1c-0.7-0.6-1.4-1.2-2.2-1.7s-1.5-0.8-2.3-1.1c-0.8-0.2-1.5-0.3-2.2-0.3
		c-2.4,0.2-3.5,1.6-3.3,4.3c0.2,1.8,2.1,3.6,5.9,5.4c2.7,1.4,4.9,2.6,6.7,3.6c1.7,1.1,3.1,2,4,2.8
		C-176,562.4-173.8,566.8-173.3,572.1z"/>
	<path id="XMLID_16_" class="st2" d="M-310.7,557c0,6.5-0.8,10.8-2.4,13c-3.6,5.1-9.6,7.6-17.8,7.6c-3.6,0-6.8-0.6-9.6-1.9
		c-2.8-1.3-5.2-3.2-7.2-5.7c-1.9-2.5-3.4-5.5-4.4-9.1s-1.5-7.6-1.5-12.2c0-13.6,4.9-22.5,14.6-26.7c3-1.3,6.1-2,9.4-2
		c5.8,0,11.6,1.7,17.4,5.2l-7.6,14.2c-1.6-2.2-4.9-3.3-9.9-3.3c-2.9,0-5.1,1.1-6.6,3.4c-1.5,2.3-2.2,5.5-2.2,9.5
		c0,2.1,0.2,4.1,0.6,5.8c0.4,1.8,1,3.3,1.7,4.6s1.7,2.3,2.7,3c1.1,0.7,2.3,1,3.7,1c4.1,0,6.2-1.5,6.2-4.6c0-0.3,0-0.5-0.1-0.6
		l-6.1-0.5l-0.9-14.1l18.9-0.5c0.3,2.3,0.6,4.6,0.7,6.9C-310.7,552.4-310.7,554.7-310.7,557z"/>
	<path id="XMLID_18_" class="st2" d="M-276.2,527l-0.4,32.2c0,2.5-0.4,4.9-1.1,7.2c-0.7,2.2-1.7,4.2-2.9,5.9c-1.2,1.7-2.7,3-4.4,4
		c-1.7,1-3.7,1.5-5.8,1.5c-2.5,0-4.8-0.4-7-1.3c-2.2-0.9-4.1-2.1-5.7-3.6s-2.9-3.4-3.9-5.5c-0.9-2.1-1.4-4.4-1.5-6.9l-0.5-33.2
		l12.7,0.2c0.5,18.7,0.8,29.3,0.8,31.7c0,2.8,1.1,4.2,3.3,4.2c1.8,0,2.8-1.9,2.8-5.7l0.5-30.5h13.1V527z"/>
	<path id="XMLID_20_" class="st2" d="M-249.3,576.4l-27.3-4.3l7.8-49.2l26,4.1l-2,12.6l-13.1-1.3l-0.6,6.6l12.2,1.9l-1.6,10.1
		l-11.4-1.8l-0.9,5.7l13,2.1L-249.3,576.4z"/>
	<path id="XMLID_22_" class="st2" d="M-216.2,570.5c-0.2,1.4-0.8,2.7-1.8,4s-2.1,2.5-3.4,3.4c-1.3,1-2.8,1.7-4.3,2.2s-3,0.6-4.4,0.4
		c-9.3-1.5-16-6.6-19.9-15.5l11.8-4.1c0.3,0.7,0.7,1.5,1.2,2.3s1.1,1.5,1.7,2.2c0.6,0.7,1.2,1.3,1.9,1.7c0.6,0.5,1.3,0.8,1.8,0.9
		c1.3,0.2,2.1-0.7,2.4-2.6c0.1-0.5,0-0.9-0.3-1.5c-0.3-0.5-0.7-1-1.3-1.6c-0.5-0.5-1.2-1.1-1.9-1.6c-0.7-0.6-1.4-1.1-2.1-1.7
		c-1.4-1.2-2.6-2.5-3.7-3.9c-1.1-1.4-2-2.9-2.7-4.4s-1.2-3.1-1.5-4.6c-0.3-1.6-0.3-3.1-0.1-4.6c0.3-2.1,1-3.9,2-5.5s2.2-2.9,3.7-4
		c1.5-1,3.1-1.7,5-2.2c1.9-0.4,3.9-0.4,5.9-0.1c1.6,0.3,3.2,0.7,4.7,1.3s2.9,1.4,4.2,2.3s2.4,1.9,3.3,3.1c0.9,1.1,1.6,2.3,2.1,3.5
		l-9.1,7.3c-0.3-0.7-0.6-1.4-1.1-2.1c-0.5-0.7-1-1.3-1.5-1.9c-0.6-0.6-1.1-1-1.8-1.4c-0.6-0.4-1.2-0.6-1.8-0.7
		c-2.1-0.3-3.3,0.7-3.7,2.9c-0.2,1.5,1,3.5,3.9,5.9c2,1.7,3.7,3.2,4.9,4.5c1.3,1.3,2.2,2.3,2.8,3.2
		C-216.4,561.7-215.4,565.9-216.2,570.5z"/>
	<path id="XMLID_29_" class="st3" d="M-312.5,513.3l-11.2,1.6l-8.3-12.7v13.3l-13.1,0.8l-1.4-50.3c-0.2,0-0.4-0.1-0.4-0.2
		c0-0.3,1.4-0.4,4.2-0.4c4.5,0,8.5,0.2,11.8,0.5c3.3,0.4,6,1.1,8.1,2.3c2.1,1.2,3.7,3,4.7,5.2c1,2.3,1.5,5.4,1.5,9.2
		c0,4.1-1.9,8.1-5.6,11.9L-312.5,513.3z M-333.2,486.7c3.2-0.6,4.7-2.1,4.7-4.4v-0.4c-0.1-1.2-0.6-2.2-1.6-3.1
		c-0.9-0.9-2.2-1.4-4-1.6L-333.2,486.7z"/>
	<path id="XMLID_6_" class="st2" d="M-313.5,510.3l-11.2,1.6l-8.3-12.7v12.3l-13.1,0.8l-1.4-49.3c-0.2,0-0.4-0.1-0.4-0.2
		c0-0.3,1.4-0.4,4.2-0.4c4.5,0,8.5,0.2,11.8,0.5c3.3,0.4,6,1.1,8.1,2.3c2.1,1.2,3.7,3,4.7,5.2c1,2.3,1.5,5.4,1.5,9.2
		c0,4.1-1.9,8.1-5.6,11.9L-313.5,510.3z M-334.2,483.7c3.2-0.6,4.7-2.1,4.7-4.4v-0.4c-0.1-1.2-0.6-2.2-1.6-3.1
		c-0.9-0.9-2.2-1.4-4-1.6L-334.2,483.7z"/>
	<path id="XMLID_14_" class="st5" d="M-165.9,534.5l-19.4,0.4l-18.3-27.4l4.8,30.6l-21.3,1.9l-8-86.8l20-1.8l17.7,35l-3.6-39l20-0.4
		L-165.9,534.5z"/>
	<path id="XMLID_32_" class="st6" d="M-167.1,529.7l-19.2,0.7l-18.5-27.1l5.2,30.5l-21,2.2l-9.1-86.7l19.7-2.1l18,34.7l-4.1-38.9
		l19.8-0.7L-167.1,529.7z"/>
	<path id="XMLID_24_" class="st2" d="M-175.3,568.1c0.1,1.6-0.1,3.2-0.8,4.9s-1.6,3.3-2.8,4.7s-2.6,2.6-4.1,3.6
		c-1.6,1-3.1,1.5-4.7,1.7c-10.7,0.9-19.4-3-26.1-11.6l11.9-7.7c0.5,0.7,1.2,1.5,2,2.2s1.6,1.4,2.4,2c0.8,0.6,1.7,1,2.5,1.4
		c0.9,0.4,1.6,0.5,2.3,0.5c1.5-0.1,2.1-1.3,1.9-3.5c0-0.5-0.3-1-0.8-1.5s-1.1-1-1.8-1.4s-1.6-0.9-2.5-1.3c-0.9-0.4-1.9-0.8-2.8-1.2
		c-1.9-0.9-3.6-2-5.2-3.2c-1.6-1.3-3-2.6-4.2-4.1s-2.2-3.1-2.9-4.7c-0.7-1.6-1.2-3.3-1.3-5.1c-0.2-2.4,0-4.6,0.7-6.7
		c0.7-2.1,1.7-3.9,3-5.4s3-2.8,5-3.7c2-1,4.1-1.5,6.5-1.7c1.9-0.2,3.7-0.1,5.6,0.2c1.9,0.3,3.6,0.7,5.2,1.4c1.6,0.7,3.1,1.5,4.5,2.5
		c1.3,1,2.4,2.1,3.2,3.3l-8.1,10.5c-0.5-0.7-1.1-1.4-1.8-2.1c-0.7-0.6-1.4-1.2-2.2-1.7s-1.5-0.8-2.3-1.1c-0.8-0.2-1.5-0.3-2.2-0.3
		c-2.4,0.2-3.5,1.6-3.3,4.3c0.2,1.8,2.1,3.6,5.9,5.4c2.7,1.4,4.9,2.6,6.7,3.6c1.7,1.1,3.1,2,4,2.8
		C-178,558.4-175.8,562.8-175.3,568.1z"/>
	<polygon class="st7" points="-347.1,513.3 -345.6,516.8 -343.4,515 -345.2,512.6 	"/>
	<polygon class="st7" points="-317.1,516.8 -318.5,512.9 -314.3,513.3 	"/>
	<polygon class="st7" points="-292.4,511.9 -291,515.3 -287.8,514 -290.6,511.2 	"/>
	<polygon class="st7" points="-254.4,513 -252.6,516.3 -249.6,515.3 -252,512.7 	"/>
	<polygon class="st7" points="-243.9,455.8 -242.9,460 -244.5,460.1 -245.3,457.3 	"/>
	<polygon class="st7" points="-264.9,453 -264,457.3 -265.8,458.2 -266.3,454.9 	"/>
	<polygon class="st7" points="-177.5,533.8 -175.3,537.6 -177.5,538.9 -180.6,536.3 	"/>
	<path class="st8" d="M-175.4,441.4l2.3,4.7l-1.6,1.3c0,0-1.5-4.4-1.5-4.6C-176.3,442.6-175.4,441.4-175.4,441.4z"/>
	<g id="XMLID_33_">
		<g id="XMLID_178_">
			<path id="XMLID_233_" class="st6" d="M-156.6,441.7c0,1.6-0.2,3.2-0.6,4.8c-0.4,1.6-1,3-1.8,4.3s-1.8,2.4-3,3.4s-2.6,1.7-4.2,2.2
				l-0.2-0.1c0.6-1.3,1.1-2.3,1.3-2.9c0.3-0.6,0.4-1.1,0.5-1.4c0.1-0.4,0.1-0.7,0.1-1s0.1-0.9,0.3-1.7l-6-0.4l-0.9-9.1l14-0.8
				C-156.7,439.4-156.6,440.4-156.6,441.7z"/>
		</g>
	</g>
	<g id="XMLID_1_">
		<g id="XMLID_2_">
			<path id="XMLID_4_" class="st9" d="M-157.1,441.6c0,1.6-0.2,3.2-0.6,4.8c-0.4,1.6-1,3-1.8,4.3s-1.8,2.4-3,3.4s-2.6,1.7-4.2,2.2
				l-0.2-0.1c0.6-1.3,1.1-2.3,1.3-2.9c0.3-0.6,0.4-1.1,0.5-1.4c0.1-0.4,0.1-0.7,0.1-1s0.1-0.9,0.3-1.7l-6-0.4l-0.9-9.1l14-0.8
				C-157.2,439.3-157.1,440.3-157.1,441.6z"/>
		</g>
	</g>
</g>
</svg>
