<?xml version="1.0" encoding="utf-8"?>
<!-- Generator: Adobe Illustrator 19.0.0, SVG Export Plug-In . SVG Version: 6.00 Build 0)  -->
<svg version="1.1" id="Capa_1" xmlns="http://www.w3.org/2000/svg" xmlns:xlink="http://www.w3.org/1999/xlink" x="0px" y="0px"
	 viewBox="-188.2 354.8 235.6 150.2" style="enable-background:new -188.2 354.8 235.6 150.2;" xml:space="preserve">
<style type="text/css">
	.st0{opacity:0.17;}
	.st1{fill:#292929;}
	.st2{fill:#292929;stroke:#292929;stroke-miterlimit:10;}
	.st3{fill:#393939;stroke:#292929;stroke-width:2;stroke-miterlimit:10;}
	.st4{fill:#292929;stroke:#292929;stroke-width:2;stroke-miterlimit:10;}
	.st5{fill:#898989;stroke:#898989;stroke-width:2;stroke-miterlimit:10;}
	.st6{fill:#A3A3A3;stroke:#898989;stroke-width:2;stroke-miterlimit:10;}
	.st7{fill:#898989;}
	.st8{fill:#A3A3A3;stroke:#898989;stroke-miterlimit:10;}
</style>
<g class="st0">
	<polygon class="st1" points="-73.2,443 -70.3,447.8 -71.7,450.6 -76.3,448 	"/>
	<polygon class="st1" points="-92.7,443.3 -90.8,447.3 -92.1,448.5 -94.4,445.7 	"/>
	<polygon class="st1" points="-107.9,441.6 -106,446.5 -110,448.5 -110.5,444.4 	"/>
	<path class="st1" d="M-38.7,443l2,4l-2.9,0.5l-0.4-3.8C-39.9,443.6-38.7,443-38.7,443z"/>
	<polygon class="st1" points="-42.2,462.8 -40.2,466.8 -42.6,468 -44.5,464.5 	"/>
	<polygon class="st1" points="-43.1,478.9 -42.4,480.2 -44.2,479.7 	"/>
	<polygon class="st1" points="-72.8,493.7 -74.7,489.8 -72.2,489.1 -70.4,490 	"/>
	<polygon class="st1" points="-10.3,492 -10.7,490.1 -9.2,489.8 -8,491.7 	"/>
	<path id="XMLID_27_" class="st2" d="M-176.1,378.9c8.5-1.9,15.5-0.8,21,3.3c5.5,4.1,9.3,10.8,11.3,20.3c1.9,8.7,1.2,15.9-2.1,21.4
		c-3.3,5.6-9.3,9.3-17.8,11.2c-1.5,0.3-2.8,0.6-4.1,0.7c-1.3,0.2-2.4,0.2-3.5,0.2l-14.7-53.6C-183.3,380.9-180,379.8-176.1,378.9z
		 M-162.7,416.5c1.1-0.6,1.9-1.3,2.7-2.2c0.7-0.9,1.3-1.9,1.7-3.1c0.4-1.1,0.7-2.3,0.8-3.6c0.1-1.2,0-2.5-0.3-3.7s-0.7-2.3-1.4-3.3
		c-0.6-1-1.4-1.9-2.3-2.7c-0.9-0.7-1.9-1.3-3-1.7c-1.1-0.4-2.2-0.6-3.4-0.5L-162.7,416.5z"/>
	<path id="XMLID_3_" class="st3" d="M-177.1,373.9c8.5-1.9,15.5-0.8,21,3.3s9.3,10.8,11.3,20.3c1.9,8.7,1.2,15.9-2.1,21.4
		c-3.3,5.6-9.3,9.3-17.8,11.2c-1.5,0.3-2.8,0.6-4.1,0.7c-1.3,0.2-2.4,0.2-3.5,0.2l-14.7-53.6C-184.3,375.9-181,374.8-177.1,373.9z
		 M-163.7,411.5c1.1-0.6,1.9-1.3,2.7-2.2c0.7-0.9,1.3-1.9,1.7-3.1c0.4-1.1,0.7-2.3,0.8-3.6c0.1-1.2,0-2.5-0.3-3.7s-0.7-2.3-1.4-3.3
		c-0.6-1-1.4-1.9-2.3-2.7c-0.9-0.7-1.9-1.3-3-1.7c-1.1-0.4-2.2-0.6-3.4-0.5L-163.7,411.5z"/>
	<path id="XMLID_40_" class="st2" d="M-72.6,431.7h-15l-1.9-8.7h-7.9l-1.6,10.1h-14.5l11.4-50h18.9L-72.6,431.7z M-90.4,409.9
		l-2.6-13.7l-2.7,13.7H-90.4z"/>
	<path id="XMLID_30_" class="st2" d="M-15.9,379.3l-18.3,55.3l-14.9-1.9l-1.6-23.6l-7.9,22.8l-14.3-2.7l-2.6-55.6l14,0.9l0.6,24.7
		l8.9-24.5l11.6,2.4l1.9,25.8l8.2-25.5L-15.9,379.3z"/>
	<path id="XMLID_9_" class="st3" d="M-73.6,427.7h-15l-1.9-8.7h-7.9l-1.6,10.1h-14.5l11.4-50h18.9L-73.6,427.7z M-91.4,405.9
		l-2.6-13.7l-2.7,13.7H-91.4z"/>
	<path id="XMLID_12_" class="st3" d="M-17.3,375.5l-18.3,55.3l-14.9-1.9l-1.6-23.6l-7.9,22.8l-14.3-2.7l-2.6-55.6l14,0.9l0.6,24.7
		l8.9-24.5l11.6,2.4l1.9,25.8l8.2-25.5L-17.3,375.5z"/>
	<path id="XMLID_129_" class="st4" d="M-105.7,477.8c0,6.5-0.8,10.8-2.4,13c-3.6,5.1-9.6,7.6-17.8,7.6c-3.6,0-6.8-0.6-9.6-1.9
		c-2.8-1.3-5.2-3.2-7.2-5.7c-1.9-2.5-3.4-5.5-4.4-9.1s-1.5-7.6-1.5-12.2c0-13.6,4.9-22.5,14.6-26.7c3-1.3,6.1-2,9.4-2
		c5.8,0,11.6,1.7,17.4,5.2l-7.6,14.2c-1.6-2.2-4.9-3.3-9.9-3.3c-2.9,0-5.1,1.1-6.6,3.4c-1.5,2.3-2.2,5.5-2.2,9.5
		c0,2.1,0.2,4.1,0.6,5.8c0.4,1.8,1,3.3,1.7,4.6s1.7,2.3,2.7,3c1.1,0.7,2.3,1,3.7,1c4.1,0,6.2-1.5,6.2-4.6c0-0.3,0-0.5-0.1-0.6
		l-6.1-0.5l-0.9-14.1l18.9-0.5c0.3,2.3,0.6,4.6,0.7,6.9C-105.7,473.2-105.7,475.5-105.7,477.8z"/>
	<path id="XMLID_95_" class="st4" d="M-71.2,447.8l-0.4,32.2c0,2.5-0.4,4.9-1.1,7.2c-0.7,2.2-1.7,4.2-2.9,5.9c-1.2,1.7-2.7,3-4.4,4
		c-1.7,1-3.7,1.5-5.8,1.5c-2.5,0-4.8-0.4-7-1.3c-2.2-0.9-4.1-2.1-5.7-3.6s-2.9-3.4-3.9-5.5c-0.9-2.1-1.4-4.4-1.5-6.9l-0.5-33.2
		l12.7,0.2c0.5,18.7,0.8,29.3,0.8,31.7c0,2.8,1.1,4.2,3.3,4.2c1.8,0,2.8-1.9,2.8-5.7l0.5-30.5h13.1V447.8z"/>
	<path id="XMLID_61_" class="st4" d="M-44.3,497.2l-27.3-4.3l7.8-49.2l26,4.1l-2,12.6l-13.1-1.3l-0.6,6.6l12.2,1.9l-1.6,10.1
		l-11.4-1.8l-0.9,5.7l13,2.1L-44.3,497.2z"/>
	<path id="XMLID_51_" class="st4" d="M-11.2,491.3c-0.2,1.4-0.8,2.7-1.8,4s-2.1,2.5-3.4,3.4c-1.3,1-2.8,1.7-4.3,2.2s-3,0.6-4.4,0.4
		c-9.3-1.5-16-6.6-19.9-15.5l11.8-4.1c0.3,0.7,0.7,1.5,1.2,2.3s1.1,1.5,1.7,2.2c0.6,0.7,1.2,1.3,1.9,1.7c0.6,0.5,1.3,0.8,1.8,0.9
		c1.3,0.2,2.1-0.7,2.4-2.6c0.1-0.5,0-0.9-0.3-1.5c-0.3-0.5-0.7-1-1.3-1.6c-0.5-0.5-1.2-1.1-1.9-1.6c-0.7-0.6-1.4-1.1-2.1-1.7
		c-1.4-1.2-2.6-2.5-3.7-3.9c-1.1-1.4-2-2.9-2.7-4.4s-1.2-3.1-1.5-4.6c-0.3-1.6-0.3-3.1-0.1-4.6c0.3-2.1,1-3.9,2-5.5s2.2-2.9,3.7-4
		c1.5-1,3.1-1.7,5-2.2c1.9-0.4,3.9-0.4,5.9-0.1c1.6,0.3,3.2,0.7,4.7,1.3s2.9,1.4,4.2,2.3s2.4,1.9,3.3,3.1c0.9,1.1,1.6,2.3,2.1,3.5
		L-16,468c-0.3-0.7-0.6-1.4-1.1-2.1s-1-1.3-1.5-1.9c-0.6-0.6-1.1-1-1.8-1.4c-0.6-0.4-1.2-0.6-1.8-0.7c-2.1-0.3-3.3,0.7-3.7,2.9
		c-0.2,1.5,1,3.5,3.9,5.9c2,1.7,3.7,3.2,4.9,4.5c1.3,1.3,2.2,2.3,2.8,3.2C-11.4,482.5-10.4,486.7-11.2,491.3z"/>
	<path id="XMLID_31_" class="st4" d="M29.7,488.9c0.1,1.6-0.1,3.2-0.8,4.9s-1.6,3.3-2.8,4.7s-2.6,2.6-4.1,3.6
		c-1.6,1-3.1,1.5-4.7,1.7c-10.7,0.9-19.4-3-26.1-11.6l11.9-7.7c0.5,0.7,1.2,1.5,2,2.2s1.6,1.4,2.4,2c0.8,0.6,1.7,1,2.5,1.4
		c0.9,0.4,1.6,0.5,2.3,0.5c1.5-0.1,2.1-1.3,1.9-3.5c0-0.5-0.3-1-0.8-1.5s-1.1-1-1.8-1.4s-1.6-0.9-2.5-1.3c-0.9-0.4-1.9-0.8-2.8-1.2
		c-1.9-0.9-3.6-2-5.2-3.2c-1.6-1.3-3-2.6-4.2-4.1s-2.2-3.1-2.9-4.7c-0.7-1.6-1.2-3.3-1.3-5.1c-0.2-2.4,0-4.6,0.7-6.7
		c0.7-2.1,1.7-3.9,3-5.4s3-2.8,5-3.7c2-1,4.1-1.5,6.5-1.7c1.9-0.2,3.7-0.1,5.6,0.2c1.9,0.3,3.6,0.7,5.2,1.4c1.6,0.7,3.1,1.5,4.5,2.5
		c1.3,1,2.4,2.1,3.2,3.3L18.3,465c-0.5-0.7-1.1-1.4-1.8-2.1c-0.7-0.6-1.4-1.2-2.2-1.7s-1.5-0.8-2.3-1.1c-0.8-0.2-1.5-0.3-2.2-0.3
		c-2.4,0.2-3.5,1.6-3.3,4.3c0.2,1.8,2.1,3.6,5.9,5.4c2.7,1.4,4.9,2.6,6.7,3.6c1.7,1.1,3.1,2,4,2.8C27,479.2,29.2,483.6,29.7,488.9z"
		/>
	<path id="XMLID_16_" class="st3" d="M-107.7,473.8c0,6.5-0.8,10.8-2.4,13c-3.6,5.1-9.6,7.6-17.8,7.6c-3.6,0-6.8-0.6-9.6-1.9
		c-2.8-1.3-5.2-3.2-7.2-5.7c-1.9-2.5-3.4-5.5-4.4-9.1s-1.5-7.6-1.5-12.2c0-13.6,4.9-22.5,14.6-26.7c3-1.3,6.1-2,9.4-2
		c5.8,0,11.6,1.7,17.4,5.2l-7.6,14.2c-1.6-2.2-4.9-3.3-9.9-3.3c-2.9,0-5.1,1.1-6.6,3.4c-1.5,2.3-2.2,5.5-2.2,9.5
		c0,2.1,0.2,4.1,0.6,5.8c0.4,1.8,1,3.3,1.7,4.6s1.7,2.3,2.7,3c1.1,0.7,2.3,1,3.7,1c4.1,0,6.2-1.5,6.2-4.6c0-0.3,0-0.5-0.1-0.6
		l-6.1-0.5l-0.9-14.1l18.9-0.5c0.3,2.3,0.6,4.6,0.7,6.9C-107.7,469.2-107.7,471.5-107.7,473.8z"/>
	<path id="XMLID_18_" class="st3" d="M-73.2,443.8l-0.4,32.2c0,2.5-0.4,4.9-1.1,7.2c-0.7,2.2-1.7,4.2-2.9,5.9c-1.2,1.7-2.7,3-4.4,4
		c-1.7,1-3.7,1.5-5.8,1.5c-2.5,0-4.8-0.4-7-1.3c-2.2-0.9-4.1-2.1-5.7-3.6s-2.9-3.4-3.9-5.5c-0.9-2.1-1.4-4.4-1.5-6.9l-0.5-33.2
		l12.7,0.2c0.5,18.7,0.8,29.3,0.8,31.7c0,2.8,1.1,4.2,3.3,4.2c1.8,0,2.8-1.9,2.8-5.7l0.5-30.5h13.1V443.8z"/>
	<path id="XMLID_20_" class="st3" d="M-46.3,493.2l-27.3-4.3l7.8-49.2l26,4.1l-2,12.6l-13.1-1.3l-0.6,6.6l12.2,1.9l-1.6,10.1
		l-11.4-1.8l-0.9,5.7l13,2.1L-46.3,493.2z"/>
	<path id="XMLID_22_" class="st3" d="M-13.2,487.3c-0.2,1.4-0.8,2.7-1.8,4s-2.1,2.5-3.4,3.4c-1.3,1-2.8,1.7-4.3,2.2s-3,0.6-4.4,0.4
		c-9.3-1.5-16-6.6-19.9-15.5l11.8-4.1c0.3,0.7,0.7,1.5,1.2,2.3s1.1,1.5,1.7,2.2c0.6,0.7,1.2,1.3,1.9,1.7c0.6,0.5,1.3,0.8,1.8,0.9
		c1.3,0.2,2.1-0.7,2.4-2.6c0.1-0.5,0-0.9-0.3-1.5c-0.3-0.5-0.7-1-1.3-1.6c-0.5-0.5-1.2-1.1-1.9-1.6c-0.7-0.6-1.4-1.1-2.1-1.7
		c-1.4-1.2-2.6-2.5-3.7-3.9c-1.1-1.4-2-2.9-2.7-4.4s-1.2-3.1-1.5-4.6c-0.3-1.6-0.3-3.1-0.1-4.6c0.3-2.1,1-3.9,2-5.5s2.2-2.9,3.7-4
		c1.5-1,3.1-1.7,5-2.2c1.9-0.4,3.9-0.4,5.9-0.1c1.6,0.3,3.2,0.7,4.7,1.3s2.9,1.4,4.2,2.3s2.4,1.9,3.3,3.1c0.9,1.1,1.6,2.3,2.1,3.5
		L-18,464c-0.3-0.7-0.6-1.4-1.1-2.1c-0.5-0.7-1-1.3-1.5-1.9c-0.6-0.6-1.1-1-1.8-1.4c-0.6-0.4-1.2-0.6-1.8-0.7
		c-2.1-0.3-3.3,0.7-3.7,2.9c-0.2,1.5,1,3.5,3.9,5.9c2,1.7,3.7,3.2,4.9,4.5c1.3,1.3,2.2,2.3,2.8,3.2
		C-13.4,478.5-12.4,482.7-13.2,487.3z"/>
	<path id="XMLID_29_" class="st2" d="M-109.5,430.1l-11.2,1.6L-129,419v13.3l-13.1,0.8l-1.4-50.3c-0.2,0-0.4-0.1-0.4-0.2
		c0-0.3,1.4-0.4,4.2-0.4c4.5,0,8.5,0.2,11.8,0.5c3.3,0.4,6,1.1,8.1,2.3c2.1,1.2,3.7,3,4.7,5.2c1,2.3,1.5,5.4,1.5,9.2
		c0,4.1-1.9,8.1-5.6,11.9L-109.5,430.1z M-130.2,403.5c3.2-0.6,4.7-2.1,4.7-4.4v-0.4c-0.1-1.2-0.6-2.2-1.6-3.1
		c-0.9-0.9-2.2-1.4-4-1.6L-130.2,403.5z"/>
	<path id="XMLID_6_" class="st3" d="M-110.5,427.1l-11.2,1.6L-130,416v12.3l-13.1,0.8l-1.4-49.3c-0.2,0-0.4-0.1-0.4-0.2
		c0-0.3,1.4-0.4,4.2-0.4c4.5,0,8.5,0.2,11.8,0.5c3.3,0.4,6,1.1,8.1,2.3c2.1,1.2,3.7,3,4.7,5.2c1,2.3,1.5,5.4,1.5,9.2
		c0,4.1-1.9,8.1-5.6,11.9L-110.5,427.1z M-131.2,400.5c3.2-0.6,4.7-2.1,4.7-4.4v-0.4c-0.1-1.2-0.6-2.2-1.6-3.1
		c-0.9-0.9-2.2-1.4-4-1.6L-131.2,400.5z"/>
	<path id="XMLID_14_" class="st5" d="M37.1,451.3l-19.4,0.4l-18.3-27.4l4.8,30.6l-21.3,1.9l-8-86.8l20-1.8l17.7,35l-3.6-39l20-0.4
		L37.1,451.3z"/>
	<path id="XMLID_32_" class="st6" d="M35.9,446.5l-19.2,0.7l-18.5-27.1l5.2,30.5l-21,2.2l-9.1-86.7L-7,364l18,34.7l-4.1-38.9
		l19.8-0.7L35.9,446.5z"/>
	<path id="XMLID_24_" class="st3" d="M27.7,484.9c0.1,1.6-0.1,3.2-0.8,4.9s-1.6,3.3-2.8,4.7s-2.6,2.6-4.1,3.6
		c-1.6,1-3.1,1.5-4.7,1.7c-10.7,0.9-19.4-3-26.1-11.6l11.9-7.7c0.5,0.7,1.2,1.5,2,2.2s1.6,1.4,2.4,2c0.8,0.6,1.7,1,2.5,1.4
		c0.9,0.4,1.6,0.5,2.3,0.5c1.5-0.1,2.1-1.3,1.9-3.5c0-0.5-0.3-1-0.8-1.5s-1.1-1-1.8-1.4s-1.6-0.9-2.5-1.3c-0.9-0.4-1.9-0.8-2.8-1.2
		c-1.9-0.9-3.6-2-5.2-3.2c-1.6-1.3-3-2.6-4.2-4.1s-2.2-3.1-2.9-4.7c-0.7-1.6-1.2-3.3-1.3-5.1c-0.2-2.4,0-4.6,0.7-6.7
		c0.7-2.1,1.7-3.9,3-5.4s3-2.8,5-3.7c2-1,4.1-1.5,6.5-1.7c1.9-0.2,3.7-0.1,5.6,0.2c1.9,0.3,3.6,0.7,5.2,1.4c1.6,0.7,3.1,1.5,4.5,2.5
		c1.3,1,2.4,2.1,3.2,3.3L16.3,461c-0.5-0.7-1.1-1.4-1.8-2.1c-0.7-0.6-1.4-1.2-2.2-1.7s-1.5-0.8-2.3-1.1c-0.8-0.2-1.5-0.3-2.2-0.3
		c-2.4,0.2-3.5,1.6-3.3,4.3c0.2,1.8,2.1,3.6,5.9,5.4c2.7,1.4,4.9,2.6,6.7,3.6c1.7,1.1,3.1,2,4,2.8C25,475.2,27.2,479.6,27.7,484.9z"
		/>
	<polygon class="st1" points="-144.1,430.1 -142.6,433.6 -140.4,431.8 -142.2,429.4 	"/>
	<polygon class="st1" points="-114.1,433.6 -115.5,429.7 -111.3,430.1 	"/>
	<polygon class="st1" points="-89.4,428.7 -88,432.1 -84.8,430.8 -87.6,428 	"/>
	<polygon class="st1" points="-51.4,429.8 -49.6,433.1 -46.6,432.1 -49,429.5 	"/>
	<polygon class="st1" points="-40.9,372.6 -39.9,376.8 -41.5,376.9 -42.3,374.1 	"/>
	<polygon class="st1" points="-61.9,369.8 -61,374.1 -62.8,375 -63.3,371.7 	"/>
	<polygon class="st1" points="25.5,450.6 27.7,454.4 25.5,455.7 22.4,453.1 	"/>
	<path class="st7" d="M27.6,358.2l2.3,4.7l-1.6,1.3c0,0-1.5-4.4-1.5-4.6C26.7,359.4,27.6,358.2,27.6,358.2z"/>
	<g id="XMLID_33_">
		<g id="XMLID_178_">
			<path id="XMLID_233_" class="st6" d="M46.4,358.5c0,1.6-0.2,3.2-0.6,4.8c-0.4,1.6-1,3-1.8,4.3s-1.8,2.4-3,3.4s-2.6,1.7-4.2,2.2
				l-0.2-0.1c0.6-1.3,1.1-2.3,1.3-2.9c0.3-0.6,0.4-1.1,0.5-1.4c0.1-0.4,0.1-0.7,0.1-1s0.1-0.9,0.3-1.7l-6-0.4l-0.9-9.1l14-0.8
				C46.3,356.2,46.4,357.2,46.4,358.5z"/>
		</g>
	</g>
	<g id="XMLID_1_">
		<g id="XMLID_2_">
			<path id="XMLID_4_" class="st8" d="M45.9,358.4c0,1.6-0.2,3.2-0.6,4.8c-0.4,1.6-1,3-1.8,4.3s-1.8,2.4-3,3.4s-2.6,1.7-4.2,2.2
				l-0.2-0.1c0.6-1.3,1.1-2.3,1.3-2.9c0.3-0.6,0.4-1.1,0.5-1.4c0.1-0.4,0.1-0.7,0.1-1s0.1-0.9,0.3-1.7l-6-0.4l-0.9-9.1l14-0.8
				C45.8,356.1,45.9,357.1,45.9,358.4z"/>
		</g>
	</g>
</g>
</svg>
