<?xml version="1.0" encoding="utf-8"?>
<!-- Generator: Adobe Illustrator 19.0.0, SVG Export Plug-In . SVG Version: 6.00 Build 0)  -->
<svg version="1.1" id="Capa_1" focusable="false" xmlns="http://www.w3.org/2000/svg" xmlns:xlink="http://www.w3.org/1999/xlink"
	 x="0px" y="0px" viewBox="-59.4 231.9 454.9 357.5" style="enable-background:new -59.4 231.9 454.9 357.5;" xml:space="preserve">
<style type="text/css">
	.st0{fill:#5C328A;}
	.st1{fill:#37274C;}
	.st2{fill:#6CBF9F;}
	.st3{fill:#DCDCDC;}
</style>
<g>
	<g>
		<path class="st0" d="M382.7,459.5c0-37.8-27.6-44.8-65.4-53.2c0.6-3.3,0.9-6.7,0.9-10.1c0-1.2-0.1-2.4-0.1-3.6
			c0.4-2.8,0.6-5.6,0.6-8.5c0-33.2-28.9-60.1-64.4-60.1c-13.2,0-25.6,3.8-35.8,10.1c-18.6-30-53.3-50.2-93.1-50.2
			C66.1,283.9,18,328.7,18,384c0,0.6,0,1.3,0,1.9c-0.1,1.1-0.2,2.2-0.3,3.3c-37.4,12.4-64.2,45.8-64.2,84.9c0,0.8-0.5-33.2-0.5-32.3
			c-0.4,3.2,0,41.2,0,44.5c0,49.8,43.3,90.1,96.6,90.1h247c47.4,0,85.9-35.9,85.9-80.1c0-1,0-1.9-0.1-2.9
			C383,490.5,382.7,462.7,382.7,459.5z"/>
		<g>
			<path class="st1" d="M385.2,459.5c-0.1-15.6-5.3-29.8-18.5-38.9c-14.1-9.8-32.3-13-48.7-16.7c0.6,1,1.2,2.1,1.7,3.1
				c0.7-4.2,0.9-8.3,0.9-12.6c0-3.9,0.6-7.7,0.5-11.7c-0.1-6-1.2-11.9-3.1-17.6c-4-11.7-11.5-21.8-21.3-29.4
				c-22.9-17.7-55-18.6-79.6-3.9c1.1,0.3,2.3,0.6,3.4,0.9c-21.4-33.9-60.5-53.1-100.3-51.3c-36,1.6-70.7,20.1-89.9,50.9
				c-5.1,8.2-9.1,17.3-11.6,26.6c-2.7,10.1-2.6,19.9-3.6,30.2c0.6-0.8,1.2-1.6,1.8-2.4c-18.8,6.4-35.5,17.8-47.6,33.6
				c-5.9,7.8-10.6,16.4-13.8,25.7c-3.2,9.2-4,18.4-4.6,28c1.7,0,3.3,0,5,0c-0.3-10.8-0.2-21.6-0.5-32.3c-0.1-3.2-4.9-3.2-5,0
				c-0.4,8.8-0.2,17.7-0.1,26.5c0.1,9.7-0.4,19.7,0.9,29.4c3.8,28.8,22.2,53.9,47.4,68.1c17,9.5,35.7,13.2,55,13.2
				c12.3,0,24.7,0,37,0c42.5,0,85,0,127.4,0c26.1,0,52.3,0.2,78.4,0c27.9-0.2,55.1-12.4,72.1-34.8c8.7-11.4,14.2-24.9,15.9-39.2
				c1.2-10.7,0.8-22,0.8-32.8C385.3,468,385.2,463.7,385.2,459.5c0-3.2-5-3.2-5,0c0,9.7,0.2,19.4,0,29.1c-0.3,12.3-1,24.4-5.9,36.1
				c-11.9,28.1-40.4,46.6-70.4,48.9c-8.1,0.6-16.4,0.3-24.5,0.3c-16.1,0-32.3,0-48.4,0c-41.8,0-83.5,0-125.3,0
				c-14.8,0-29.5,0-44.3,0c-11.8,0-23.4,0.1-35-2.7C-2.6,564.3-28.2,544-39,515.9c-7.9-20.6-5.8-44.2-5.7-65.9
				c0-2.8,0.1-5.5,0.2-8.3c-1.7,0-3.3,0-5,0c0.3,10.8,0.2,21.6,0.5,32.3c0.1,3.2,4.8,3.2,5,0c0.6-9,1.4-17.4,4.2-26.1
				c2.9-8.6,7.2-16.8,12.7-24.1c11.4-15.2,27.6-26.3,45.5-32.4c1.1-0.4,1.7-1.2,1.8-2.4c0.8-8.7,0.6-17.1,2.6-25.7
				c1.9-8,4.8-15.8,8.7-23c7.8-14.6,19.4-27,33.2-36.1c30.9-20.4,71.6-23.7,105.4-8.7c19,8.4,35.2,22.1,46.2,39.7
				c0.7,1.1,2.2,1.6,3.4,0.9c22.9-13.7,52.7-13,74,3.5c8.8,6.8,15.9,16.1,19.5,26.8c1.8,5.2,2.8,10.7,2.9,16.2
				c0.1,3.3-0.4,6.6-0.6,9.9c-0.2,4.5,0,8.6-0.7,13c-0.2,1.3,0.3,2.8,1.7,3.1c15.1,3.4,31.5,6.3,45,14.5c13.3,8,18.5,21.2,18.6,36.3
				C380.2,462.7,385.2,462.7,385.2,459.5z"/>
		</g>
	</g>
	<g>
		<g>
			<path class="st1" d="M392.7,459.5c-0.2-18.4-6.8-34.7-22.2-45.4C355.9,404,337,400.5,320,396.7c2.3,4.1,4.7,8.2,7,12.3
				c0.8-4.9,1.2-9.6,1.3-14.6c0.1-3.8,0.6-7.8,0.5-11.7c-0.2-7-1.4-14.2-3.8-20.8c-4.9-13.2-13.3-24.3-24.5-32.8
				c-25-18.9-60.4-19.8-86.9-3.6c4.6,1.2,9.1,2.4,13.7,3.6c-22.6-35.9-63.8-56.6-106.1-55.1c-38.7,1.4-75.9,21.1-96.8,54.1
				c-5.5,8.7-9.8,18.4-12.5,28.4c-3,10.9-3.1,21.7-4,32.8c2.4-3.2,4.9-6.4,7.3-9.6c-20.7,7.1-38.8,19.6-52.1,37
				c-12.9,17-18.3,36.5-19.4,57.5c6.7,0,13.3,0,20,0c-0.3-10.8-0.5-21.6-0.5-32.4c-6.7,0-13.3,0-20,0c0.7,8.7-0.2,17.8-0.1,26.5
				c0.1,10.5-0.3,21,1.1,31.4c4.3,30.7,24,57.5,50.8,72.6c18.1,10.2,38.2,14.2,58.8,14.2c12.3,0,24.7,0,37,0c42.5,0,84.9,0,127.4,0
				c26.1,0,52.3,0.2,78.4,0c30.7-0.2,60-13.9,78.6-38.5c9.5-12.6,15.1-27.4,16.9-43c1.2-10.8,0.6-22,0.6-32.9
				C392.8,468,392.7,463.8,392.7,459.5c0-12.9-20-12.9-20,0c0,9.7,0.2,19.4,0.1,29.1c-0.1,11.6-0.6,22.5-5.2,33.3
				c-10.7,25.2-36.5,42.2-63.6,44.3c-8.1,0.6-16.4,0.3-24.5,0.3c-16.1,0-32.2,0-48.4,0c-41.8,0-83.5,0-125.2,0
				c-14.8,0-29.5,0-44.3,0c-11.1,0-22.1,0.2-33-2.4c-26.3-6.3-50.2-24.5-60.2-50.1c-7.7-19.9-5.5-42.9-5.4-63.9
				c0-2.7,0.4-5.6,0.2-8.3c-1-12.7-20.1-13-20,0c0.1,10.8,0.2,21.6,0.5,32.4c0.4,12.9,19.3,12.8,20,0c0.9-17.1,5.4-32.5,15.9-46.4
				c10.3-13.5,25-23.5,40.9-28.9c4.5-1.5,7-5,7.3-9.6c0.7-8.5,0.6-16.6,2.6-25c1.8-7.2,4.4-14,7.9-20.5
				c7.3-13.4,17.9-24.9,30.7-33.2c28.5-18.6,66-22,97.3-8.4c17.8,7.7,33.2,20.5,43.5,37c2.8,4.5,8.9,6.5,13.7,3.6
				c20.2-12.3,46.7-11.7,65.7,2.8c7.5,5.8,13.7,13.9,16.8,22.9c1.6,4.7,2.5,9.3,2.7,14.2c0.1,3.4-0.4,6.6-0.6,9.9
				c-0.2,3.7,0.2,7.3-0.4,11.1c-0.9,5.1,1.3,11,7,12.3c14.8,3.3,30.8,6.2,43.1,13.7c3.1,1.9,3.4,2,6,4.5s2.9,2.8,4.8,6.1
				c1.7,3,2.1,4.2,3,8c0.9,3.7,1.1,6.9,1.1,11.1C372.8,472.4,392.8,472.4,392.7,459.5z"/>
			<g>
				<path class="st1" d="M395.2,459.5c-0.4-17.5-6.5-34.2-20.4-45.3c-15.3-12.2-35.5-15.7-54.1-19.9c-2.1-0.5-3.9,1.7-2.8,3.7
					c2.3,4.1,4.7,8.2,7,12.3c1,1.7,4.2,1.6,4.6-0.6c2.6-16.9,3.5-35.3-3.2-51.4c-5.9-14.1-16-26.1-28.9-34.4
					c-25.5-16.4-59.2-15.9-85-0.5c-1.8,1.1-1.5,4,0.6,4.6c4.6,1.2,9.1,2.4,13.7,3.6c2,0.5,4-1.8,2.8-3.7
					c-21.3-33.3-58.3-54.3-97.7-56.3c-39.1-2-78.8,15.1-103,46.1c-7.4,9.5-13.3,20.1-17.2,31.6c-4.5,13.1-5.1,26.4-6.1,40.1
					c-0.2,2.8,3.3,3,4.7,1.3c2.4-3.2,4.9-6.4,7.3-9.6c1.3-1.7-0.9-4.4-2.8-3.7c-20.1,7.1-38.3,19-51.7,35.8
					c-14.1,17.6-20.3,38.9-21.6,61.2c-0.1,1.3,1.2,2.5,2.5,2.5c6.7,0,13.3,0,20,0c1.3,0,2.5-1.1,2.5-2.5
					c-0.3-10.8-0.5-21.6-0.5-32.4c0-1.4-1.1-2.5-2.5-2.5c-6.7,0-13.3,0-20,0c-1.3,0-2.6,1.1-2.5,2.5c1.3,19.5-1.7,39.1,1.1,58.6
					c2.1,15.1,8.1,29.6,16.8,42.1c18.8,27,48.7,42.7,81.2,45.8c19.5,1.9,39.5,0.7,59,0.7c20.6,0,41.1,0,61.7,0
					c41.1,0,82.3,0.2,123.4,0.1c16.9-0.1,33-0.7,49-6.7c14-5.3,26.9-13.6,37.2-24.4c11.2-11.8,19.2-26.4,22.8-42.4
					c2.1-9.2,2.5-18.6,2.5-28c0-9.5,0.4-19.2-0.2-28.6c-0.6-9-10-14.2-18.2-10.4c-4,1.8-6.4,5.5-6.8,9.9c-0.9,9.9,0.2,20.2,0.1,30.1
					c-0.2,18.6-3.5,35.5-16.1,49.9c-10.3,11.7-24.3,20-39.4,23.5c-9.1,2.1-18.5,2.1-27.8,2.1c-9.6-0.1-19.2-0.1-28.8-0.1
					c-20.7,0-41.3,0-62,0c-41,0-82.1,0-123.1,0c-18.6,0-37.3,1-55-5.7c-14.7-5.6-28.2-15.2-37.7-27.8c-11-14.6-14.8-31.8-15.3-49.8
					c-0.3-9.1,0.1-18.1,0.2-27.2c0.1-6.1,1.6-13.4-2.2-18.7c-5.1-6.9-17-7-21.2,0.9c-1,1.9-1.3,3.9-1.4,6
					c-0.2,5.4,0.1,10.8,0.2,16.2c0.1,4.8,0.1,9.5,0.3,14.3c0.1,2.8,0.2,5.4,1.6,7.9c4.2,7.6,15.6,8.1,20.8,1.4
					c4.1-5.2,2.9-13.5,4-19.7c1.5-8.4,4.2-16.5,8.4-24c8.4-15.1,22.1-26.7,37.8-33.8c5.9-2.7,13-3.7,15.7-10.5
					c1.3-3.4,1.2-7.3,1.4-10.8c0.3-5.4,0.6-10.9,1.7-16.2c7.3-35.5,38.3-61.3,72.9-68.3c34.1-6.9,70.7,4.2,93.8,30.5
					c2.8,3.2,5.3,6.6,7.7,10.1c1.8,2.7,3.6,5,6.6,6.4c6.7,3,11.5-1.1,17.4-3.8c15.5-7.1,34.1-6.9,49.3,1.1
					c16.6,8.7,27.3,26,25.9,44.9c-0.3,4.4-0.3,8.8-0.5,13.2c-0.2,3.5-0.8,6.6,0.4,10c2.4,6.8,8.6,7.6,14.8,9
					c8.9,1.9,17.8,3.9,26.2,7.3c6.8,2.7,14.4,6.4,18.5,12.7c4.4,6.7,3.9,13.7,4.9,21.3c0.6,4.4,3.3,7.9,7.4,9.6
					C386.2,474,394.9,468.5,395.2,459.5c0.1-3.2-4.9-3.2-5,0c-0.2,5.3-5,8.4-10,6.8c-6.6-2.1-4.7-9.9-5.5-15.2
					c-2-12.9-9.7-21.1-21.3-26.6c-7.1-3.3-14.6-5.5-22.1-7.4c-4.2-1-8.4-1.9-12.5-2.8c-4.4-1-8.1-2.3-8.6-7.4
					c-0.4-3.7,0.4-7.8,0.5-11.6c0-4.2,0.8-8.4,0.7-12.7c-0.2-7.9-2.5-15.9-6.3-22.7c-14.4-25.8-47.7-34.6-74.2-23.6
					c-3.4,1.4-6.8,4.2-10.4,5.1c-5.2,1.3-8-3.1-10.5-6.8c-4.1-6-8.9-11.5-14.2-16.4c-11-10.1-24.2-17.7-38.5-22.1
					c-29.4-9.2-62.7-4.7-88.7,11.9c-13,8.3-23.9,19.7-31.5,33.1c-3.8,6.8-6.8,14.1-8.7,21.7c-2.1,8.1-2,16.4-2.8,24.7
					c-0.5,5.6-2.6,7.9-7.8,9.8c-3.4,1.3-6.8,2.7-10,4.4C1,405-5.1,409.1-10.7,413.9c-11.5,9.9-20,22.9-24.3,37.5
					c-2.3,7.6-2.7,15.1-3.7,22.8c-0.7,5-5.1,8.4-10.2,6.7c-6.9-2.3-4.9-12.6-5-18.2c-0.1-4.8-0.1-9.5-0.2-14.3c0-3.4-0.9-7.9,1-10.9
					c2.6-3.9,8.8-3.6,11.8-0.4c2.5,2.7,2.1,6.3,2,9.7c-0.2,4.3-0.2,8.5-0.3,12.8c-0.4,16.7-1,34,3.9,50.2
					c8.1,26.7,31.2,46.7,57.3,55c16.7,5.3,34.3,4.2,51.5,4.2c19.2,0,38.4,0,57.6,0c39,0,77.9,0,116.9,0c18.7,0,37.8,1.2,56.4-0.3
					c13.5-1.1,26.7-5.6,38-13c11.4-7.5,21.1-18,26.9-30.5c7.3-15.7,6.6-33.2,6.4-50.1c0-4.5-0.1-9.1-0.1-13.6c0-3.2,0.2-6.1,3.2-8
					c3.8-2.3,9.6-1.1,11.3,3.2c1.2,3.2,0.5,7.6,0.5,11c0,4.7,0,9.4,0.1,14.1c0.1,9.7,0.2,19.6-1.6,29.2
					c-6.1,32.3-30.5,57.9-61.4,68.1c-15.8,5.2-31.8,5-48.3,5.1c-19.3,0-38.6-0.1-57.8-0.1c-39.1,0-78.3,0-117.4,0
					c-18.9,0-38.1,0.7-57-0.2c-17.9-0.8-35.6-5.1-51.1-14.1c-26.1-14.9-45.6-41.8-49.2-72c-2.2-18.6,0.5-37.3-0.8-55.9
					c-0.8,0.8-1.7,1.7-2.5,2.5c6.7,0,13.3,0,20,0c-0.8-0.8-1.7-1.7-2.5-2.5c0,10.8,0.2,21.6,0.5,32.4c0.8-0.8,1.7-1.7,2.5-2.5
					c-6.7,0-13.3,0-20,0c0.8,0.8,1.7,1.7,2.5,2.5c1.2-21.4,7.3-42.1,21.2-58.9c12.8-15.4,29.7-26.6,48.5-33.2
					c-0.9-1.2-1.9-2.4-2.8-3.7c-2.4,3.2-4.9,6.4-7.3,9.6c1.6,0.4,3.1,0.8,4.7,1.3c0.9-11.7,1.3-23.3,4.6-34.6
					c3-10.1,7.7-19.7,13.6-28.5c10.6-15.5,25.3-28,42-36.6c33.7-17.2,74.6-17.5,108.4-0.6c18.8,9.4,34.8,23.6,46.1,41.3
					c0.9-1.2,1.9-2.4,2.8-3.7c-4.6-1.2-9.1-2.4-13.7-3.6c0.2,1.5,0.4,3,0.6,4.6c23.9-14.3,54.8-15,78.7-0.3
					c12.4,7.6,22.3,19.1,28,32.5c6.3,15,5.5,32.6,3.1,48.5c1.5-0.2,3-0.4,4.6-0.6c-2.3-4.1-4.7-8.2-7-12.3c-0.9,1.2-1.9,2.4-2.8,3.7
					c17,3.8,35.3,6.9,49.9,17.1c14.3,10,20.6,26.2,21,43.2C390.3,462.7,395.3,462.7,395.2,459.5z"/>
			</g>
		</g>
	</g>
</g>
<g>
	<g>
		<path class="st2" d="M314,366.2c2.8-6.7,4.3-14,4.3-21.7c0-33.2-28.9-60.1-64.4-60.1c-13.2,0-25.6,3.8-35.8,10.1
			c-18.6-30-53.3-50.2-93.1-50.2c-59.3,0-107.4,44.8-107.4,100.1c0,1.7,0.1,3.4,0.1,5.1c-37.6,12.3-64.6,45.8-64.6,85.1
			c0,49.8,43.3,90.1,96.6,90.1h247c47.4,0,85.9-35.9,85.9-80.1C382.7,406,353.2,373.6,314,366.2z"/>
		<g>
			<path class="st1" d="M316.4,366.9c10.2-25.4,1.5-54.1-20-70.7c-22.9-17.7-55-18.6-79.6-3.9c1.1,0.3,2.3,0.6,3.4,0.9
				c-21.2-33.7-60-52.8-99.6-51.4c-36,1.3-70.8,19.7-90.3,50.4c-11,17.4-15.4,36.8-15.1,57.3c0.6-0.8,1.2-1.6,1.8-2.4
				c-32.2,10.8-58.6,37.4-64.9,71.4c-6,32.3,7.1,65.3,32.5,85.9c19.2,15.6,42.9,22.8,67.5,22.8c12.9,0,25.8,0,38.7,0
				c46.9,0,93.8,0,140.7,0c17.5,0,35,0,52.5,0c15.3,0,30.2-0.3,44.9-5.7c30-11.1,53-37.9,55.9-70.2c3-33.4-16.7-64.6-46.2-79.4
				c-7.6-3.8-15.6-6.5-23.9-8.1c-3.1-0.6-4.5,4.2-1.3,4.8c32.7,6.4,60.8,31.3,66,65c5,32.7-13.6,64.2-42.5,79
				c-15.4,7.9-31.8,9.6-48.7,9.6c-15.1,0-30.2,0-45.4,0c-44.7,0-89.3,0-134,0c-15.9,0-31.8,0-47.7,0c-14.9,0-29.4-0.5-43.8-5.3
				c-30-10.2-54.2-35.5-60.2-67c-6.5-33.9,9.9-68.1,38.3-86.8c7.2-4.7,14.9-8.4,23-11.1c1-0.3,1.9-1.3,1.8-2.4
				c-0.3-17.3,2.8-33.8,11.2-49.2c7.9-14.5,19.6-26.9,33.4-35.9c30.8-20,71.3-23.2,104.9-8.4c19,8.4,35.2,22.1,46.2,39.7
				c0.7,1.1,2.2,1.6,3.4,0.9c22.9-13.7,52.7-13,74,3.5c20,15.5,27.7,41.8,18.2,65.4C310.4,368.5,315.2,369.8,316.4,366.9z"/>
		</g>
	</g>
	<g>
		<g>
			<path class="st1" d="M323.6,368.9c11.4-28.9,0.6-60.9-23.7-79.3c-25-18.9-60.4-19.8-86.9-3.6c4.6,1.2,9.1,2.4,13.7,3.6
				c-22.6-35.9-63.8-56.6-106.1-55.1c-38.7,1.4-75.9,21.1-96.8,54.1c-11.5,18.2-16.9,39.6-16.1,61c2.4-3.2,4.9-6.4,7.3-9.6
				c-34.5,11.6-63.3,40-70.1,76.6c-6.5,34.8,6.8,70.9,34.4,93.2c20.8,16.9,46.2,25,72.9,25c12.9,0,25.8,0,38.7,0
				c46.9,0,93.8,0,140.7,0c17.5,0,35,0,52.5,0c15.9,0,31.7-0.3,46.9-5.9c33.4-12.3,58.2-41.6,61.4-77.5c3.2-35.8-18.4-70.2-50.1-86
				c-8.2-4.1-16.8-7.1-25.7-8.8c-5.3-1-10.8,1.5-12.3,7c-1.3,4.9,1.7,11.3,7,12.3c30.1,5.9,56.4,28.4,60.8,59.8
				c4.2,29.5-13,57.3-39,70.6c-14.2,7.3-29.3,8.5-44.9,8.5c-15.1,0-30.2,0-45.4,0c-44.7,0-89.3,0-134,0c-15.9,0-31.8,0-47.7,0
				c-14.3,0-28-0.4-41.8-5.1c-27.7-9.4-49.5-32.9-55-61.8c-5.8-30.3,9.4-61.5,34.8-78.3c6.6-4.4,13.7-7.9,21.2-10.4
				c4.1-1.4,7.5-5.1,7.3-9.6c-1.2-31.7,14.1-61.2,40.8-78.6c28.5-18.6,66-22,97.3-8.4c17.8,7.7,33.2,20.5,43.5,37
				c2.8,4.5,8.9,6.5,13.7,3.6c20.2-12.3,46.7-11.7,65.7,2.8c17.9,13.8,23.8,36.6,15.5,57.5c-2,5,2.2,11,7,12.3
				C317,377.4,321.6,373.9,323.6,368.9z"/>
			<g>
				<path class="st1" d="M326,369.6c8.7-22.8,4.5-48.4-10.3-67.8c-15.1-19.7-39.3-30.4-63.9-29.7c-14.1,0.4-27.9,4.5-40,11.7
					c-1.8,1.1-1.5,4,0.6,4.6c4.6,1.2,9.1,2.4,13.7,3.6c2,0.5,4-1.8,2.8-3.7c-21.3-33.3-58.3-54.2-97.7-56.3
					c-39.3-2-79.2,15.3-103.4,46.6C12.1,299,4.4,324,5.2,349.6c0.1,2.7,3.2,3.2,4.7,1.3c2.4-3.2,4.9-6.4,7.3-9.6
					c1.3-1.7-0.9-4.3-2.8-3.7c-27.2,9.3-51.2,28.4-63.9,54.5c-12.9,26.5-12.6,58-0.1,84.6c13.6,29,41.1,49.5,71.9,57
					c17.2,4.2,34.7,3.5,52.2,3.5c20.3,0,40.7,0,61,0c40.5,0,80.9,0,121.4,0c18.9,0,38.3,1.2,57-1.6c15.5-2.3,30.2-8.5,42.7-17.7
					c22.7-16.6,37.6-42.7,38.5-71c1-29.5-14.4-57.8-37.8-75.2c-6.3-4.7-13.2-8.5-20.4-11.5c-7-2.9-15.9-6.8-23.6-6.3
					c-12.2,0.8-16.4,18-5,23.5c2.8,1.3,6.1,1.6,9.1,2.4c3.8,1.1,7.5,2.4,11.1,4c6.5,2.9,12.6,6.7,18,11.3
					c11.3,9.5,19.4,22.3,22.4,36.9c6.7,32.5-14.9,65.2-45.6,75.6c-18.4,6.2-38.6,4.6-57.8,4.6c-20.1,0-40.1,0-60.2,0
					c-40.8,0-81.6,0-122.4,0c-19.3,0-39.7,1.6-58.5-3.6c-15.1-4.2-28.8-12.7-39.2-24.3c-21.6-24-25.7-58.6-9.3-86.6
					c8.4-14.4,21.2-25.6,36.2-32.6c6-2.8,13.8-3.8,16.9-10.5c1.3-2.8,1-5.8,1-8.8c0-4.2,0.3-8.5,0.9-12.7
					c4.9-32.3,27.9-58.6,58.3-69.9c32.4-12,70.3-7.1,97.5,14.8c6.3,5.1,12.1,11,16.8,17.6c3.7,5.1,6.5,10.9,13.7,11.4
					c3.2,0.2,5.6-0.9,8.3-2.4c3.9-2.1,7.8-3.9,12-5.1c7.9-2.3,16.2-3,24.4-1.9c16.1,2.3,31.2,11.8,38.6,26.5
					c3.5,7.1,5.1,15,4.8,22.8c-0.2,3.9-0.9,7.8-2,11.6c-1,3.2-2.5,6-1.9,9.5c0.9,5.5,5.8,10,11.3,10.6c6,0.6,10.8-3.1,13.2-8.4
					c1.3-2.9-3-5.5-4.3-2.5c-1.9,4.2-5.7,7.5-10.5,5.4c-5.4-2.4-4.9-7.1-3.3-11.7c2.2-6.7,3.2-13.8,2.6-20.8
					c-1.1-13.8-7.9-26.5-18.6-35.3c-11.1-9.1-25.6-13.7-39.9-13.1c-7.4,0.3-14.7,1.9-21.6,4.7c-3.2,1.3-6.2,3.5-9.4,4.7
					c-5.7,2.1-8.7-2.3-11.5-6.4c-35.9-52.3-117.3-57.8-160.1-10.9c-9.5,10.4-16.5,22.8-20.4,36.3c-2,7-3.2,14.4-3.5,21.7
					c-0.2,3.4,0.8,8.1-1,11.2c-2.2,3.7-7.7,4.6-11.4,6.2C-14.4,371-35.1,396-38.8,425.6c-3.5,28,9.9,55.7,31.9,72.8
					c12.2,9.4,26.5,15.3,41.8,17.5c18.4,2.6,37.5,1.4,56.1,1.4c39.5,0,78.9,0,118.4,0c20.1,0,40.1,0,60.2,0
					c17.8,0,36.3,1.2,53.5-4.2c27.3-8.5,48.9-33.2,51.9-61.9c2.9-27.6-12.5-53.5-35.9-67.4c-5.7-3.4-11.9-6.1-18.2-8.1
					c-3.2-1-7.5-1.2-10.4-2.8c-3.9-2.2-4.9-7.9-2.2-11.3c3.4-4.1,8.7-2.5,13.1-1.4c5.1,1.3,10,3,14.8,5c7.3,3.2,14.3,7.2,20.6,12.2
					c24,19,37.7,49.9,32.4,80.5c-5,29-25,53.1-51.4,65.5c-16.9,8-35.2,8.9-53.6,8.9c-19.5,0-39,0-58.4,0c-39.6,0-79.3,0-118.9,0
					c-19.5,0-39.2,0.6-58.7-0.1c-17-0.5-33.8-4.6-48.9-12.4c-28.8-14.9-49.2-42.8-52.8-75.2c-3.3-30.5,8.8-60,31.6-80.3
					c10.9-9.8,23.9-17.1,37.7-21.8c-0.9-1.2-1.9-2.4-2.8-3.7c-2.4,3.2-4.9,6.4-7.3,9.6c1.6,0.4,3.1,0.8,4.7,1.3
					c-1.2-42.1,22-79.8,59.2-99.1c33.5-17.4,74.4-18,108.4-1.3c19.1,9.4,35.3,23.7,46.7,41.7c0.9-1.2,1.9-2.4,2.8-3.7
					c-4.6-1.2-9.1-2.4-13.7-3.6c0.2,1.5,0.4,3,0.6,4.6c25.8-15.4,59.8-14.9,84.1,3.4c23.6,17.8,33.4,48.9,22.8,76.7
					C320,371.2,324.9,372.5,326,369.6z"/>
			</g>
		</g>
	</g>
</g>
<g>
	<g>
		<path class="st3" d="M94.3,305.6c3.2-0.8,6.5-1.3,9.7-1.8c2.1-0.4-3.4,0.4,0.1,0c0.7-0.1,1.5-0.2,2.2-0.2c1.9-0.2,3.8-0.3,5.7-0.5
			c4.3-0.3,8.7-0.3,13-0.1c2.3,0.1,4.7,0.3,7,0.6c3,0.3-1.9-0.4,0.8,0.1c1.4,0.2,2.8,0.5,4.1,0.7c2.4,0.5,4.8,1.1,7.2,1.8
			c1,0.3,2,0.6,3.1,1c0.5,0.2,4.6,1.9,2,0.7c2.3,1.1,4.6,2.2,6.8,3.5c0.9,0.6,1.9,1.2,2.8,1.8c0.6,0.4,1.2,0.9,1.8,1.3
			c-1.1-0.8-1-0.8,0.1,0.2c4.9,4.6,6.4,6.1,9.4,11.1c8.3,13.8,29.9,1.2,21.6-12.6c-21-34.9-67.4-41.1-104.1-31.7
			C72.1,285.5,78.7,309.6,94.3,305.6L94.3,305.6z"/>
	</g>
</g>
<g>
	<g>
		<path class="st3" d="M232.4,339.4c1.8,0.2,3.5,0.6,5.2,1.1c1.9,0.5,3.7,1,5.5,1.6c1,0.3,2,0.7,3,1.1c1.6,0.6-2.2-1-0.7-0.3
			c0.7,0.3,1.3,0.6,2,0.9c2.2,1.1,4.3,2.3,6.4,3.7c0.3,0.2,2.5,1.8,1.1,0.7c-1.3-1,0.4,0.4,0.6,0.6c1,0.9,2,1.8,2.9,2.7
			c0.6,0.6,1.1,1.2,1.7,1.9c-0.7-0.9-0.8-1.2-0.1-0.1c0.7,1.2,1.4,2.4,2.1,3.6c0.6,1,0.5,1.1,0.1,0c0.3,0.9,0.6,1.8,0.9,2.7
			c0.2,0.7,0.4,1.5,0.6,2.3c0.1,0.4,0.4,3,0.2,0.9c0.7,6.7,5.2,12.5,12.5,12.5c6.2,0,13.2-5.7,12.5-12.5
			c-1.9-17.1-11.1-31-26.3-39.3c-7.1-3.9-15.3-7.1-23.4-8.2c-6.7-0.9-13.4,1.6-15.4,8.7C222.1,329.9,225.7,338.5,232.4,339.4
			L232.4,339.4z"/>
	</g>
</g>
<g>
	<g>
		<path class="st3" d="M303.7,420.4c1.8,0.8,3.5,1.8,5.1,2.8c0.9,0.5,1.7,1.1,2.6,1.7c0.5,0.3,0.9,0.7,1.4,1
			c1.2,0.7-2.4-2.1-0.5-0.4c1.9,1.8,3.8,3.4,5.6,5.3c0.7,0.8,2.7,3.6,1.1,1.2c0.8,1.3,1.7,2.5,2.5,3.8c0.3,0.5,0.5,1.1,0.9,1.7
			c1.6,2.4-0.5-1.5,0.1,0.1c0.6,1.6,1,3.1,1.4,4.7c0.2,0.6,0.5,3,0.2,0.2c0.1,0.7,0.1,1.4,0.2,2.1c0.1,1.9,0,3.7-0.1,5.6
			c0.2-1.9,0,0-0.2,0.9c-0.2,1-0.5,2.1-0.8,3.1c-0.6,2.1-1.1,3.5-1.8,4.9c-2.8,6.1-1.7,13.5,4.5,17.1c5.4,3.1,14.3,1.7,17.1-4.5
			c8.8-19.2,8.3-39.2-5.1-56c-5.6-7-13.2-13.3-21.4-17c-6.1-2.8-13.4-1.8-17.1,4.5C296.1,408.7,297.5,417.6,303.7,420.4L303.7,420.4
			z"/>
	</g>
</g>
</svg>
