<?xml version="1.0" encoding="utf-8"?>
<!-- Generator: Adobe Illustrator 19.0.0, SVG Export Plug-In . SVG Version: 6.00 Build 0)  -->
<svg version="1.1" id="Capa_1" xmlns="http://www.w3.org/2000/svg" xmlns:xlink="http://www.w3.org/1999/xlink" x="0px" y="0px"
	 viewBox="0 0 168.2 128.3" style="enable-background:new 0 0 168.2 128.3;" xml:space="preserve">
<style type="text/css">
	.st0{fill:#5C328A;}
	.st1{fill:#221C42;}
	.st2{fill:#6DBF9E;}
	.st3{fill:#E5E5E4;}
</style>
<g id="XMLID_9_">
	<g id="XMLID_51_">
		<path id="XMLID_93_" class="st0" d="M148.4,64.3h-16c-4.4,0-8.4,1.9-11.3,5c10.1,6,17.3,16.7,18.8,29.5h16.5c4.4,0,8-3.9,8-8.6
			v-8.6C164.4,72.1,157.2,64.3,148.4,64.3z"/>
		<g id="XMLID_88_">
			<path id="XMLID_92_" class="st1" d="M148.4,60.8c-10.4,0-21.8-1.9-29.8,6c-1.6,1.6-1.2,4.3,0.7,5.5c9.9,6.1,15.6,16,17.2,27.4
				c0.2,1.5,2,2.6,3.4,2.6c9.8,0,26.4,3,28-10.7c0.6-5.3,0.7-12-1.1-17C164,66.5,156.9,61.2,148.4,60.8c-4.5-0.2-4.5,6.8,0,7
				c7.6,0.3,12.2,6.6,12.5,13.7c0.1,3.1,0.7,7.4-0.3,10.4c-1.5,4.5-7.4,3.3-11,3.3c-3.3,0-6.5,0-9.8,0c1.1,0.9,2.2,1.7,3.4,2.6
				c-1.8-13.1-9.1-24.6-20.4-31.6c0.2,1.8,0.5,3.7,0.7,5.5c6.1-6,17-4,24.9-4C152.9,67.8,152.9,60.8,148.4,60.8z"/>
		</g>
	</g>
	<g id="XMLID_50_">
		<path id="XMLID_86_" class="st2" d="M102.3,73h-1.9c-4.8,2.7-10.1,4.3-15.7,4.3S73.7,75.6,68.9,73H67c-14.6,0-26.5,13.9-26.5,31
			v7.8c0,7.1,4.9,12.9,11,12.9h66.2c6.1,0,11-5.8,11-12.9V104C128.8,86.9,116.9,73,102.3,73z"/>
		<g id="XMLID_81_">
			<path id="XMLID_85_" class="st1" d="M102.3,69.5c-2.5,0-3.9,0.7-6.2,1.7c-3.8,1.8-8.1,2.7-12.3,2.5c-3.7-0.1-7.2-1-10.6-2.5
				c-2.5-1.1-4.1-1.8-6.8-1.7C55.2,69.9,45.7,77.1,40.9,87c-6,12.4-8.3,40.9,11.6,41.2c14,0.2,28,0,42,0c6.7,0,13.3,0,20,0
				c6.2,0,11.7-1.3,15.2-7c2.7-4.4,2.6-9.3,2.6-14.2c0-5.7-0.4-11.2-2.4-16.6C125.4,78.6,115.1,69.8,102.3,69.5
				c-4.5-0.1-4.5,6.9,0,7C113,76.8,121,84.9,124,94.8c1.6,5.6,3.1,17.5-0.3,22.8c-2.7,4.1-6.8,3.6-11,3.6c-5.8,0-11.5,0-17.3,0
				c-12.9,0-25.8,0-38.7,0c-4.2,0-8.3,0.5-11-3.6c-3.5-5.3-2-17.2-0.3-22.8c2.6-9,12.7-21.2,23.3-18.1c2.9,0.9,5.5,2.5,8.5,3.1
				c3,0.7,6.2,1,9.2,0.8c3.1-0.2,6.1-0.7,9-1.7c2.3-0.8,4.6-2.6,7-2.6C106.8,76.5,106.8,69.5,102.3,69.5z"/>
		</g>
	</g>
	<g id="XMLID_42_">
		<path id="XMLID_79_" class="st0" d="M47.4,69.3c-2.9-3.1-6.9-5-11.3-5H20c-8.8,0-16,7.7-16,17.2v8.6c0,4.8,3.6,8.6,8,8.6h16.5
			C30.1,86.1,37.3,75.3,47.4,69.3L47.4,69.3z"/>
		<g id="XMLID_72_">
			<path id="XMLID_78_" class="st1" d="M49.8,66.9c-7.4-7.2-16.5-6-25.9-6c-10.4,0-19.7,4-22.7,15c-2.1,7.7-2.4,21.2,5.9,25.3
				c3.3,1.6,7.1,1.2,10.7,1.2c3.6,0,7.1,0,10.7,0c1.4,0,3.2-1.1,3.4-2.6c1.6-11.4,7.3-21.3,17.2-27.4c2.9-1.8,1.8-6.5-1.8-6.5h0
				c-4.5,0-4.5,7,0,7h0c-0.6-2.2-1.2-4.3-1.8-6.5c-11.3,7-18.6,18.4-20.5,31.6c1.1-0.9,2.2-1.7,3.4-2.6c-5.2,0-10.6,0.4-15.9,0
				c-6.8-0.5-5.8-10.9-5-16.1c0.8-5.1,4.3-9.7,9.4-11.1c2.4-0.6,5.2-0.4,7.7-0.4c7,0,14.7-1.3,20.1,4C48.1,75,53.1,70,49.8,66.9z"/>
		</g>
	</g>
	<g id="XMLID_76_">
		<path id="XMLID_64_" class="st2" d="M28,55.2c8.8,0,16-7.7,16-17.2s-7.2-17.2-16-17.2s-16,7.7-16,17.2S19.2,55.2,28,55.2z"/>
		<g id="XMLID_59_">
			<path id="XMLID_63_" class="st1" d="M28,58.7c11.1-0.5,19.5-9.6,19.5-20.7c0-10.8-8.5-20.7-19.5-20.7c-11.1,0-19.5,10-19.5,20.7
				C8.5,49,16.9,58.2,28,58.7c4.5,0.2,4.5-6.8,0-7c-16.3-0.7-16.4-27.5,0-27.5c16.4,0,16.3,26.8,0,27.5C23.6,51.9,23.5,58.9,28,58.7
				z"/>
		</g>
	</g>
	<g id="XMLID_75_">
		<path id="XMLID_53_" class="st2" d="M140.4,55.2c8.8,0,16-7.7,16-17.2s-7.2-17.2-16-17.2s-16,7.7-16,17.2S131.5,55.2,140.4,55.2z"
			/>
		<g id="XMLID_46_">
			<path id="XMLID_52_" class="st1" d="M140.4,58.7c11.1-0.5,19.5-9.6,19.5-20.7c0-10.8-8.5-20.7-19.5-20.7
				c-11.1,0-19.5,10-19.5,20.7C120.8,49,129.3,58.2,140.4,58.7c4.5,0.2,4.5-6.8,0-7c-16.3-0.7-16.4-27.5,0-27.5
				c16.4,0,16.3,26.8,0,27.5C135.9,51.9,135.8,58.9,140.4,58.7z"/>
		</g>
	</g>
	<g id="XMLID_58_">
		<path id="XMLID_44_" class="st2" d="M84.2,63.8c15.5,0,28.1-13.5,28.1-30.2S99.7,3.4,84.2,3.4S56.1,16.9,56.1,33.6
			S68.7,63.8,84.2,63.8z"/>
		<g id="XMLID_20_">
			<path id="XMLID_24_" class="st1" d="M84.2,67.3c30-0.7,42.2-40.6,20-59.7c-10.1-8.7-25-10.2-36.3-2.8
				c-11.6,7.6-17.1,21.9-14.7,35.4C55.9,55.3,68.7,66.9,84.2,67.3c4.5,0.1,4.5-6.9,0-7c-14.3-0.4-24.6-12.8-24.6-26.7
				C59.6,20,69.9,6.9,84.2,6.9c14.2,0,24.6,13,24.6,26.7c0,13.9-10.3,26.3-24.6,26.7C79.7,60.4,79.7,67.4,84.2,67.3z"/>
		</g>
	</g>
	<g id="XMLID_56_">
		<g id="XMLID_38_">
			<path id="XMLID_43_" class="st3" d="M80.6,21c2.8-0.1,4.2,0.2,7.2,1.2c4.6,1.6,7.9,5.1,8.5,10.1c0.7,6.3,10.7,6.4,10,0
				C104.7,19.1,93.8,10.7,80.6,11C74.2,11.1,74.2,21.1,80.6,21L80.6,21z"/>
		</g>
	</g>
	<g id="XMLID_55_">
		<g id="XMLID_32_">
			<path id="XMLID_36_" class="st3" d="M27.2,36.4c0.2,0,0.5,0,0.7,0c1,0-1.4-0.3-0.4,0c0.3,0.1,0.7,0.2,1,0.3c0.9,0.2-1.2-0.6,0,0
				c0.1,0.1,0.4,0.3,0.5,0.3c-0.2,0-1-0.9-0.4-0.3c0.5,0.6-0.2,0-0.2-0.4c0,0.1,0.3,0.5,0.3,0.6c0.3,0.4-0.3-1.1-0.1-0.3
				c0.1,0.3,0.2,1.3,0.1-0.1c0.3,2.6,2.1,5.1,5,5c2.5-0.1,5.3-2.2,5-5c-0.4-3.8-2.1-7.1-5.7-8.8c-1.8-0.8-3.8-1.4-5.8-1.4
				c-2.6,0-5.1,2.3-5,5C22.3,34,24.4,36.4,27.2,36.4L27.2,36.4z"/>
		</g>
	</g>
	<g id="XMLID_57_">
		<g id="XMLID_26_">
			<path id="XMLID_30_" class="st3" d="M139,37c0.2,0,0.5,0,0.7,0c1,0-1.4-0.3-0.4,0c0.3,0.1,0.7,0.2,1,0.3c0.9,0.2-1.2-0.6,0,0
				c0.1,0.1,0.4,0.3,0.5,0.3c-0.2,0-1-0.9-0.4-0.3c0.5,0.6-0.2,0-0.2-0.4c0,0.1,0.3,0.5,0.3,0.6c0.3,0.4-0.3-1.1-0.1-0.3
				c0.1,0.3,0.2,1.3,0.1-0.1c0.3,2.6,2.1,5.1,5,5c2.5-0.1,5.3-2.2,5-5c-0.4-3.8-2.1-7.1-5.7-8.8C143,27.5,141,27,139,27
				c-2.6,0-5.1,2.3-5,5C134.2,34.7,136.2,37,139,37L139,37z"/>
		</g>
	</g>
	<g id="XMLID_4_">
		<g id="XMLID_14_">
			<path id="XMLID_18_" class="st3" d="M103.6,88c-1.9-0.2,0.9,0.3,1.5,0.6c1.2,0.5,2.8,1.7,3.9,2.8c5.6,5.8,5.5,15.1,4.9,22.6
				c-0.4,4.5,6.6,4.5,7,0c1.1-12.5-2-31.1-17.4-33C99.2,80.4,99.2,87.4,103.6,88L103.6,88z"/>
		</g>
	</g>
</g>
</svg>
