<?xml version="1.0" encoding="utf-8"?>
<!-- Generator: Adobe Illustrator 19.0.0, SVG Export Plug-In . SVG Version: 6.00 Build 0)  -->
<svg version="1.1" id="Capa_3" xmlns="http://www.w3.org/2000/svg" xmlns:xlink="http://www.w3.org/1999/xlink" x="0px" y="0px"
	 viewBox="0 0 104.2 127.8" style="enable-background:new 0 0 104.2 127.8;" xml:space="preserve">
<style type="text/css">
	.st0{fill:#5C328A;stroke:#221C42;stroke-width:7;stroke-miterlimit:10;}
	.st1{fill:#6DBF9E;stroke:#221C42;stroke-width:7;stroke-miterlimit:10;}
	.st2{fill:#E0E0E0;}
	.st3{fill:#E5E5E4;}
</style>
<g id="XMLID_1_">
	<path id="XMLID_2_" class="st0" d="M3.5,29.7v85.4c0,6.8,6.6,11.2,12.3,8.2l79.4-40.8c3.4-1.8,5.6-5.1,5.6-8.8V55.4L15.8,21.5
		C10.1,18.5,3.5,22.9,3.5,29.7z"/>
	<path id="XMLID_7_" class="st1" d="M3.5,12.7V98c0,6.8,6.6,11.2,12.3,8.2L96,63.6c6.3-3.4,6.3-13.1,0-16.5L15.8,4.5
		C10.1,1.4,3.5,5.9,3.5,12.7z"/>
	<g id="XMLID_3_">
		<polyline id="XMLID_23_" class="st2" points="18.9,23.3 76.8,52.4 73.1,54.4 		"/>
		<g id="XMLID_18_">
			<path id="XMLID_22_" class="st3" d="M16.4,27.6C35.7,37.3,55,47,74.3,56.7c0-2.9,0-5.8,0-8.6c-1.2,0.7-2.4,1.3-3.7,2
				c-5.7,3.1-0.6,11.7,5,8.6c1.2-0.7,2.4-1.3,3.7-2c3.2-1.7,3.3-7,0-8.6C60,38.4,40.7,28.7,21.4,19C15.7,16.1,10.6,24.7,16.4,27.6
				L16.4,27.6z"/>
		</g>
	</g>
	<g id="XMLID_8_">
		<line id="XMLID_31_" class="st2" x1="60" y1="62.4" x2="53.8" y2="65.5"/>
		<g id="XMLID_26_">
			<path id="XMLID_30_" class="st3" d="M57.5,58.1c-2.1,1-4.2,2-6.3,3.1c-2.4,1.2-3.2,4.7-1.8,6.8c1.6,2.4,4.3,3,6.8,1.8
				c2.1-1,4.2-2,6.3-3.1c2.4-1.2,3.2-4.7,1.8-6.8C62.8,57.5,60,56.9,57.5,58.1L57.5,58.1z"/>
		</g>
	</g>
</g>
</svg>
