<?xml version="1.0" encoding="utf-8"?>
<!-- Generator: Adobe Illustrator 19.0.0, SVG Export Plug-In . SVG Version: 6.00 Build 0)  -->
<svg version="1.1" id="Capa_1" xmlns="http://www.w3.org/2000/svg" xmlns:xlink="http://www.w3.org/1999/xlink" x="0px" y="0px"
	 viewBox="0 0 595.9 595.9" style="enable-background:new 0 0 595.9 595.9;" xml:space="preserve">
<style type="text/css">
	.st0{fill:#6DBF9F;}
	.st1{fill:#211F42;}
	.st2{fill:#5A328A;}
	.st3{fill:#1E2041;}
</style>
<g id="XMLID_4_">
	<path id="XMLID_64_" class="st0" d="M175.8,436.1c-29.8-26.3-51-62.1-59-102.6c-2.2-11.3-3.4-23-3.5-34.9
		C113,197.2,195.5,113.8,297,113.3c27.1-0.1,53.4,5.5,77.6,16.6c17.6,8.1,38.5,2.4,49.6-13.4L436.3,99c4.1-5.9,6.4-12.6,7-19.2
		c1.5-16-6.8-32.2-22.5-39.7c-38.1-18.2-79.9-27.7-122.9-27.7C221.7,12.3,149.9,42,96,96c-51,51-80.3,117.9-83.4,189.5
		c-0.2,4.1-0.3,8.3-0.3,12.4c0,76.3,29.7,148,83.6,201.9"/>
	<g id="XMLID_59_">
		<path id="XMLID_63_" class="st1" d="M184.6,427.3c-38.2-34.1-60.1-82.8-58.7-134.3c0.5-20.5,4.7-40.2,12.7-60.3
			c2.9-7.2,8.6-18.2,13.8-26.5c6-9.4,10.6-15.6,17.9-23.6c14.5-15.9,29.2-27.3,48.2-37.4c9.8-5.2,17-8.2,27.7-11.5
			c4.7-1.5,9.5-2.8,14.3-3.9c2.7-0.6,5.3-1.1,8-1.6c1.3-0.2,2.7-0.5,4-0.7c-0.1,0,3.9-0.6,2.1-0.3c26.2-3.4,52.9-0.9,78,7.4
			c12.8,4.2,24.4,11.3,38.2,11.4c13.1,0.1,25.5-4.9,35.4-13.4c6-5.2,10.2-12.2,14.7-18.7c4.7-6.8,9.4-13.2,12.2-21.1
			c4.6-13.1,3.3-27.6-2.6-40c-5.8-12.3-16.2-20.4-28.3-25.9C370.3,3.3,312.7-4.9,256.1,2.8C151.8,17.1,61.8,88.5,21.8,185.5
			c-20,48.6-26,102.2-18.9,154.2c7.1,51.5,28,100.2,59.9,141.2c7.6,9.7,15.7,19,24.4,27.8c11.4,11.4,29-6.3,17.7-17.7
			c-34.2-34.4-58.9-76.9-71.1-123.7c-12.4-47.4-11.8-97.9,1.7-145.1C62.4,128,141,53.9,236.2,31.8c50.3-11.7,104.2-8.6,153.4,8.7
			c10.8,3.8,25.6,8.4,33.3,16c6.2,6.1,9.1,14.4,8,23.2c-1,7.8-6,13.8-10.3,20c-3.7,5.3-6.7,10.4-10.9,14.3c-6,5.6-15.7,8.2-23,6.6
			c-6.3-1.3-10.7-3.9-17.1-6.4c-6.7-2.7-13.6-5-20.6-6.8c-25.7-6.9-52.6-8.2-78.9-4.6c-42.2,5.8-82,26.1-112,56.4
			c-30.6,30.9-50.1,71.3-55.7,114.4c-6.5,50.7,7.8,103.1,39,143.6c7.7,10,16.1,19.2,25.5,27.6c5,4.5,12.7,5,17.7,0
			C189.2,440.4,189.7,431.8,184.6,427.3L184.6,427.3z"/>
	</g>
</g>
<g id="XMLID_10_">
	<path id="XMLID_49_" class="st2" d="M96,499.8c53.9,53.9,125.6,83.6,201.9,83.6s148-29.7,201.9-83.6
		c53.9-53.9,83.6-125.6,83.6-201.9c0-9.5-0.5-18.9-1.4-28.3c-2.8-27.9-9.6-55.1-20.2-80.9c-9.4-22.8-37.1-31.7-58.1-18.6l-17.8,11.1
		c-16.4,10.2-23.5,30.7-16.4,48.7c2.7,6.9,5,13.9,6.9,21c4,15.2,6,31,6,46.9c0,7.9-0.5,15.7-1.5,23.3
		c-11.5,90.8-89.2,161.2-183.1,161.2c-46.8,0-98.9-23.6-131.9-56.1"/>
	<g id="XMLID_44_">
		<path id="XMLID_48_" class="st3" d="M87.2,508.6c36.1,35.9,81,62.6,130.1,76.3c49.3,13.8,102.3,14.5,152.1,2.4
			c99.3-24.2,181.1-101.1,212.4-198.3c16.5-51.3,18.5-107.1,6.3-159.5c-3.4-14.5-7.9-28.7-13.5-42.4c-4.7-11.5-11.4-21.1-22.1-27.7
			c-18.2-11.4-40.1-9.4-57.8,1.7c-5,3.1-10.1,6.1-15,9.3c-10.8,6.9-18.7,16.8-22.8,29c-4,11.7-3,24.2,1.3,35.6
			c4.9,12.9,8.6,26.4,10.4,40.1c3.5,26.2,1.1,50.4-6.7,75.1c-3.4,10.8-6.5,18.2-11.9,28.2c-2.3,4.3-4.8,8.6-7.5,12.7
			c-1.2,1.9-2.4,3.7-3.7,5.6c-0.8,1.1-1.5,2.2-2.3,3.3c-0.3,0.4-2.9,3.8-2.1,2.8c-25.7,33-60.9,55-101.3,63.6
			c-20.2,4.3-43,4.9-64,0.6c-24.2-5-47.1-14.8-67.7-28.2c-9.6-6.3-18.2-13.1-26.4-21.2c-11.5-11.2-29.2,6.4-17.7,17.7
			c35.3,34.5,85.1,57.5,134.7,59.6c42.9,1.8,86.8-11.9,121.3-37.2c34.6-25.4,60.5-61,73.2-102c7.6-24.6,10.3-51.1,7.6-76.7
			c-1.5-14.5-4.3-28.8-8.9-42.7c-1.8-5.4-4.4-10.7-5.5-16.4c-0.7-3.7-0.4-7.9,0.9-12.5c2-6.7,6.6-12.1,12.9-16
			c5.3-3.3,10.6-6.6,15.9-9.9c3.1-1.9,5-2.8,7.5-3.6c1.2-0.4,2.5-0.6,3.8-0.9c0.3-0.1,2.4-0.3,0.5-0.1c1.3-0.1,2.5-0.2,3.8-0.2
			c0.5,0,5.2,0.3,2.9,0c5,0.7,7.8,1.8,11.1,3.7c3.1,1.8,6.5,4.8,8.1,7.1c6.9,9.7,10,23.1,13.3,34.4c3.8,13.2,6.8,26.7,8.5,40.3
			c3.3,25.4,3.1,52.4-0.8,77.2c-14.7,93.8-79.1,176.7-167.7,211.9c-89.1,35.5-192.7,22-269-36.9c-9.3-7.2-18.1-15.1-26.5-23.5
			C93.4,479.6,75.7,497.3,87.2,508.6L87.2,508.6z"/>
	</g>
</g>
<g id="XMLID_3_">
	<g id="XMLID_38_">
		<path id="XMLID_50_" class="st3" d="M104.8,508.6c20.4-21.4,40.8-42.8,61.2-64.2c2.9-3.1,5.9-6.2,8.8-9.3
			c11.1-11.6-6.5-29.4-17.7-17.7c-20.4,21.4-40.8,42.8-61.2,64.2c-2.9,3.1-5.9,6.2-8.8,9.3C76.1,502.6,93.7,520.3,104.8,508.6
			L104.8,508.6z"/>
	</g>
</g>
</svg>
