<?xml version="1.0" encoding="utf-8"?>
<!-- Generator: Adobe Illustrator 19.0.0, SVG Export Plug-In . SVG Version: 6.00 Build 0)  -->
<svg version="1.1" id="Capa_1" xmlns="http://www.w3.org/2000/svg" xmlns:xlink="http://www.w3.org/1999/xlink" x="0px" y="0px"
	 viewBox="0 0 919.8 919.8" style="enable-background:new 0 0 919.8 919.8;" xml:space="preserve">
<style type="text/css">
	.st0{fill:#5A328A;}
	.st1{fill:#1E2041;}
	.st2{fill:#6DBF9F;}
	.st3{fill:#211F42;}
	.st4{fill:#E1E1E0;}
</style>
<g id="XMLID_4_">
	<path id="XMLID_58_" class="st0" d="M459.9,902.3c-59.7,0-117.6-11.7-172.2-34.8c-52.7-22.3-100-54.2-140.6-94.8
		c-40.6-40.6-72.5-87.9-94.8-140.6c-23.1-54.6-34.8-112.5-34.8-172.2h140c0,166.8,135.7,302.4,302.4,302.4
		c166.8,0,302.4-135.7,302.4-302.4h140c0,59.7-11.7,117.6-34.8,172.2c-22.3,52.7-54.2,100-94.8,140.6
		c-40.6,40.6-87.9,72.5-140.6,94.8C577.6,890.6,519.6,902.3,459.9,902.3z"/>
	<g id="XMLID_46_">
		<path id="XMLID_50_" class="st1" d="M459.9,884.8c-11.6,0-23.3-0.4-34.9-1.3c-5.5-0.4-10.9-0.9-16.4-1.6c-1.5-0.2-3-0.4-4.5-0.5
			c-0.7-0.1-4.5-0.6-1.7-0.2c-3-0.4-6-0.9-9-1.4c-22.7-3.7-45.1-9.1-67-16.3c-11-3.6-21.8-7.6-32.5-12.1c2.3,1-2.9-1.3-3.8-1.7
			c-2.6-1.2-5.2-2.3-7.8-3.5c-5.2-2.4-10.3-4.9-15.3-7.5c-18.9-9.7-37.1-20.8-54.5-33.1c-4.2-3-8.3-6-12.3-9.1
			c-2.6-2,3.1,2.5-1.2-0.9c-0.9-0.7-1.8-1.4-2.7-2.1c-2.4-2-4.9-3.9-7.3-5.9c-8.1-6.8-16-13.8-23.6-21.1
			c-7.8-7.5-15.4-15.4-22.7-23.5c-3.4-3.8-6.8-7.7-10.1-11.6c-1.8-2.2-3.6-4.4-5.4-6.6c-0.7-0.9-1.4-1.8-2.1-2.7
			c-0.3-0.3-3.2-4.1-1.5-1.8c-13.2-17-25-35.1-35.5-53.9c-11-19.8-19.4-38.1-26.6-57.5c-8.8-23.9-15.6-48.5-20.2-73.5
			c-0.6-3.3-1.2-6.6-1.7-9.9c-0.2-1.5-0.5-3-0.7-4.5c-0.1-0.6-0.8-5.6-0.4-2.6c-0.8-6-1.5-12.1-2-18.1c-1.2-13.4-1.8-26.9-1.8-40.3
			c-5.8,5.8-11.7,11.7-17.5,17.5c40.9,0,81.9,0,122.8,0c5.7,0,11.5,0,17.2,0c-5.8-5.8-11.7-11.7-17.5-17.5
			c0.2,65.7,20.5,131.1,58.8,184.5c38,53,90.7,93.5,151.9,116.1c62.5,23.1,132.8,25.4,196.8,7.1c61.3-17.5,117.4-53.8,158-103
			c42.4-51.3,68-113.9,73.4-180.3c0.7-8.1,1-16.3,1-24.5c-5.8,5.8-11.7,11.7-17.5,17.5c40.9,0,81.9,0,122.8,0c5.7,0,11.5,0,17.2,0
			c-5.8-5.8-11.7-11.7-17.5-17.5c0,11.6-0.4,23.3-1.3,34.9c-0.4,5.5-0.9,10.9-1.6,16.4c-0.2,1.5-0.4,3-0.5,4.5
			c-0.1,0.7-0.6,4.5-0.2,1.7c-0.4,3-0.9,6-1.4,9c-3.7,22.7-9.1,45.1-16.3,67c-3.6,11-7.6,21.8-12.1,32.5c1-2.3-1.3,2.9-1.7,3.8
			c-1.2,2.6-2.3,5.2-3.5,7.8c-2.4,5.2-4.9,10.3-7.5,15.3c-9.7,18.9-20.8,37.1-33.1,54.5c-3,4.2-6,8.3-9.1,12.3
			c-2,2.6,2.5-3.1-0.9,1.2c-0.7,0.9-1.4,1.8-2.1,2.7c-2,2.4-3.9,4.9-5.9,7.3c-6.8,8.1-13.8,16-21.1,23.6
			c-7.5,7.8-15.4,15.4-23.5,22.7c-3.8,3.4-7.7,6.8-11.6,10.1c-2.2,1.8-4.4,3.6-6.6,5.4c-0.9,0.7-1.8,1.4-2.7,2.1
			c-0.3,0.3-4.1,3.2-1.8,1.5c-17,13.2-35.1,25-53.9,35.5c-19.8,11-38.1,19.4-57.5,26.6c-23.9,8.8-48.5,15.6-73.5,20.2
			c-3.3,0.6-6.6,1.2-9.9,1.7c-1.5,0.2-3,0.5-4.5,0.7c-0.6,0.1-5.6,0.8-2.6,0.4c-6,0.8-12.1,1.5-18.1,2
			C486.8,884.2,473.4,884.8,459.9,884.8c-9.2,0-17.9,8-17.5,17.5c0.4,9.5,7.7,17.5,17.5,17.5c94.6-0.2,188.6-29.4,265.7-84.5
			c75.4-53.8,133.1-128.8,165.6-215.5c19.1-51,28.5-105.5,28.6-159.9c0-9.5-8-17.5-17.5-17.5c-40.9,0-81.9,0-122.8,0
			c-5.7,0-11.5,0-17.2,0c-9.5,0-17.5,8-17.5,17.5c0,7.9-0.3,15.9-0.9,23.8c-0.3,3.7-0.6,7.4-1.1,11c-0.1,1.1-0.3,2.3-0.4,3.4
			c-0.3,2.6,0.5-3.1,0.1-0.6c-0.3,2-0.6,4.1-0.9,6.1c-2.5,15.2-6.1,30.1-10.8,44.7c-2.3,7.2-5,14.3-7.8,21.3c-1.2,3,0,0,0.2-0.5
			c-0.4,0.8-0.7,1.6-1.1,2.4c-0.7,1.6-1.4,3.2-2.2,4.9c-1.7,3.6-3.4,7.2-5.2,10.8c-6.8,13.3-14.5,26.2-23.2,38.4
			c-2,2.9-4.2,5.7-6.2,8.5c2.5-3.4-0.6,0.8-1.3,1.6c-1.4,1.7-2.7,3.4-4.2,5.1c-4.8,5.7-9.7,11.3-14.9,16.6
			c-5.2,5.3-10.5,10.5-16.1,15.5c-2.6,2.3-5.3,4.6-8,6.9c-1.3,1.1-2.7,2.2-4.1,3.3c-0.9,0.8-6.2,4.8-2.7,2.1
			c-12,8.9-24.4,17.2-37.5,24.5c-6.6,3.6-13.3,7-20.1,10.1c-1.6,0.7-3.2,1.5-4.9,2.2c-0.8,0.4-1.6,0.7-2.4,1.1
			c0.5-0.2,3.5-1.4,0.5-0.2c-3.7,1.5-7.4,3-11.2,4.3c-14.4,5.2-29.1,9.4-44.1,12.4c-3.6,0.7-7.2,1.4-10.8,1.9
			c-1.8,0.3-3.6,0.6-5.4,0.8c-0.9,0.1-3.4,0.4,0.6-0.1c-1.4,0.2-2.7,0.3-4.1,0.5c-7.8,0.9-15.7,1.5-23.6,1.8
			c-15.6,0.6-31.3,0-46.8-1.9c-1.1-0.1-2.3-0.3-3.4-0.4c0.6,0.1,3.8,0.6,0.6,0.1c-1.8-0.3-3.6-0.5-5.4-0.8
			c-3.8-0.6-7.6-1.3-11.4-2.1c-7.5-1.5-15-3.3-22.4-5.4c-7.3-2.1-14.6-4.4-21.7-7c-3.6-1.3-7.1-2.7-10.6-4.1
			c-0.8-0.3-3.1-1.3,0.5,0.2c-0.8-0.4-1.6-0.7-2.4-1.1c-1.8-0.8-3.6-1.6-5.5-2.4c-13.6-6.3-26.8-13.6-39.3-21.8
			c-2.9-1.9-5.8-3.9-8.7-5.9c-1.6-1.1-3.2-2.3-4.8-3.5c-0.7-0.5-1.4-1-2.1-1.6c-0.4-0.3-3.4-2.6-1.4-1c1.9,1.4-0.4-0.3-0.8-0.6
			c-0.7-0.5-1.4-1.1-2.1-1.6c-1.4-1.1-2.7-2.2-4.1-3.3c-3-2.5-6-5.1-8.9-7.7c-11.1-9.9-21.4-20.7-30.9-32.1
			c-1.1-1.3-2.2-2.7-3.3-4.1c-0.5-0.7-1.1-1.4-1.6-2.1c-0.4-0.5-2.1-2.7-0.6-0.8c1.4,1.9-0.3-0.4-0.6-0.8c-0.5-0.7-1.1-1.4-1.6-2.1
			c-1.3-1.8-2.6-3.5-3.9-5.3c-4.3-6.1-8.4-12.4-12.2-18.8c-3.7-6.2-7.3-12.6-10.6-19.1c-1.7-3.4-3.3-6.7-4.9-10.2
			c-0.7-1.6-1.5-3.2-2.2-4.8c-0.4-0.8-0.7-1.6-1.1-2.4c-0.9-2,1.2,3,0-0.1c-5.7-14.2-10.5-28.6-14.1-43.4
			c-1.8-7.5-3.3-15.1-4.6-22.7c-0.3-1.8-0.6-3.6-0.8-5.4c-0.5-3.3,0,0,0.1,0.6c-0.1-1.1-0.3-2.3-0.4-3.4c-0.5-3.9-0.8-7.8-1.1-11.7
			c-0.6-7.9-0.9-15.9-0.9-23.8c0-9.5-8-17.5-17.5-17.5c-40.9,0-81.9,0-122.8,0c-5.7,0-11.5,0-17.2,0c-9.4,0-17.5,8-17.5,17.5
			c0.2,94.6,29.4,188.6,84.5,265.7c53.8,75.4,128.8,133.1,215.5,165.6c51,19.1,105.5,28.5,159.9,28.6c9.2,0,17.9-8.1,17.5-17.5
			C477,892.8,469.7,884.9,459.9,884.8z"/>
	</g>
</g>
<g id="XMLID_5_">
	<path id="XMLID_64_" class="st2" d="M902.3,459.9h-140c0-166.8-135.7-302.4-302.4-302.4c-166.8,0-302.4,135.7-302.4,302.4h-140
		c0-59.7,11.7-117.6,34.8-172.2c22.3-52.7,54.2-100,94.8-140.6S235,74.6,287.7,52.3c54.6-23.1,112.5-34.8,172.2-34.8
		c59.7,0,117.6,11.7,172.2,34.8c52.7,22.3,100,54.2,140.6,94.8c40.6,40.6,72.5,87.9,94.8,140.6C890.6,342.3,902.3,400.2,902.3,459.9
		z"/>
	<g id="XMLID_59_">
		<path id="XMLID_63_" class="st3" d="M902.3,442.4c-40.9,0-81.9,0-122.8,0c-5.7,0-11.5,0-17.2,0c5.8,5.8,11.7,11.7,17.5,17.5
			c-0.2-65.7-20.5-131.1-58.8-184.5c-38-53-90.7-93.5-151.9-116.1c-62.5-23.1-132.8-25.4-196.8-7.1c-61.3,17.5-117.4,53.8-158,103
			c-42.4,51.3-68,113.9-73.4,180.3c-0.7,8.1-1,16.3-1,24.5c5.8-5.8,11.7-11.7,17.5-17.5c-40.9,0-81.9,0-122.8,0
			c-5.7,0-11.5,0-17.2,0c5.8,5.8,11.7,11.7,17.5,17.5c0-11.6,0.4-23.3,1.3-34.9c0.4-5.5,0.9-10.9,1.6-16.4c0.2-1.5,0.4-3,0.5-4.5
			c0.1-0.7,0.6-4.5,0.2-1.7c0.4-3,0.9-6,1.4-9c3.7-22.7,9.1-45.1,16.3-67c3.6-11,7.6-21.8,12.1-32.5c-1,2.3,0.1-0.3,0.3-0.7
			c0.6-1.3,1.1-2.6,1.7-3.9c1-2.3,2.1-4.7,3.2-7c2.4-5.2,4.9-10.3,7.5-15.3c9.8-19.2,21-37.6,33.6-55.2c6.9-9.6,10.1-13.8,17.6-22.7
			c7-8.3,14.2-16.4,21.7-24.2c7.6-7.8,15.4-15.4,23.5-22.6c3.8-3.4,7.7-6.8,11.6-10.1c2-1.6,3.9-3.3,5.9-4.9
			c0.9-0.7,1.8-1.4,2.7-2.1c0.9-0.7,1.8-1.4,2.7-2.1c-1.1,0.8-1.1,0.9-0.2,0.1c16.9-12.9,34.7-24.6,53.3-34.9
			c9.4-5.3,19.1-10.2,28.9-14.7c10.7-5,16.9-7.6,28.6-11.9c21.6-8,43.8-14.3,66.4-18.8c5.3-1.1,10.7-2,16.1-2.9
			c2.7-0.4,5.4-0.8,8.1-1.2c3.4-0.5-4.1,0.5,1.7-0.2c1.8-0.2,3.6-0.5,5.4-0.7c11.5-1.3,23.1-2.2,34.6-2.6
			c23.2-0.8,46.5,0.1,69.6,2.8c1.2,0.1,2.4,0.3,3.6,0.4c3.6,0.5,1.6,0.2,0.8,0.1c3,0.4,6,0.9,9,1.4c5.7,0.9,11.3,1.9,17,3.1
			c11.3,2.3,22.5,5,33.5,8.2c11.1,3.2,22,6.8,32.8,10.8c5.1,1.9,10.2,3.9,15.3,6c3.1,1.3-3.5-1.6,1.5,0.6c1,0.5,2.1,0.9,3.1,1.4
			c2.6,1.2,5.2,2.3,7.8,3.5c19.6,9.1,38.5,19.6,56.5,31.4c9,5.9,17.8,12.1,26.3,18.7c-2.3-1.7,0.6,0.5,1.2,0.9
			c1.1,0.9,2.2,1.8,3.3,2.7c1.8,1.4,3.5,2.9,5.3,4.3c4.4,3.6,8.7,7.4,12.9,11.2c16.2,14.5,31.3,30.2,45.2,46.9
			c1.6,2,3.3,3.9,4.9,5.9c0.9,1.1,1.8,2.2,2.7,3.3c0.3,0.3,2,2.6,0.4,0.5c3.5,4.5,6.8,9.1,10.1,13.7c6.2,8.8,12.1,17.8,17.7,27
			c5.6,9.2,10.8,18.7,15.7,28.3c2.3,4.6,4.6,9.2,6.7,13.8c1,2.1,1.9,4.1,2.8,6.2c0.6,1.3,1.2,2.6,1.7,3.9c0.3,0.8,0.7,1.6,1,2.4
			c-0.6-1.5-0.5-1.2,0.3,0.8c8.6,21.1,15.8,42.7,21.1,64.9c2.7,11.2,5,22.5,6.8,33.8c0.4,2.7,0.8,5.4,1.2,8.1
			c-0.4-2.7,0.1,0.4,0.1,0.8c0.2,1.5,0.4,3,0.6,4.5c0.7,5.7,1.2,11.5,1.7,17.3c0.9,11.6,1.3,23.2,1.3,34.9c0,9.2,8,17.9,17.5,17.5
			c9.5-0.4,17.5-7.7,17.5-17.5c-0.2-94.6-29.4-188.6-84.5-265.7C781.3,118.7,706,60.8,619,28.3C528.4-5.4,426.6-9,333.7,17.5
			c-88.6,25.3-169.1,77.7-227.8,148.9C45.4,239.8,8.7,330.2,1.3,425.1C0.4,436.7,0,448.3,0,459.9c0,9.5,8,17.5,17.5,17.5
			c40.9,0,81.9,0,122.8,0c5.7,0,11.5,0,17.2,0c9.5,0,17.5-8,17.5-17.5c0-7.9,0.3-15.9,0.9-23.8c0.3-3.7,0.6-7.4,1.1-11
			c0.1-1.1,0.3-2.3,0.4-3.4c0.3-2.6-0.5,3.1-0.1,0.6c0.3-2,0.6-4.1,0.9-6.1c2.5-15.2,6.1-30.1,10.8-44.7c2.3-7.2,5-14.3,7.8-21.3
			c1.2-3,0,0-0.2,0.5c0.4-0.8,0.7-1.6,1.1-2.4c0.7-1.6,1.4-3.2,2.2-4.9c1.7-3.6,3.4-7.2,5.2-10.8c6.8-13.3,14.5-26.2,23.2-38.4
			c2-2.9,4.2-5.7,6.2-8.5c-2.5,3.4,0.6-0.8,1.3-1.6c1.4-1.7,2.7-3.4,4.2-5.1c4.8-5.7,9.7-11.3,14.9-16.6
			c5.2-5.3,10.5-10.5,16.1-15.5c2.6-2.3,5.3-4.6,8-6.9c1.3-1.1,2.7-2.2,4.1-3.3c0.9-0.8,6.2-4.8,2.7-2.1c12-8.9,24.4-17.2,37.5-24.5
			c6.6-3.6,13.3-7,20.1-10.1c1.6-0.7,3.2-1.5,4.9-2.2c0.8-0.4,1.6-0.7,2.4-1.1c-0.5,0.2-3.5,1.4-0.5,0.2c3.7-1.5,7.4-3,11.2-4.3
			c14.4-5.2,29.1-9.4,44.1-12.4c3.6-0.7,7.2-1.4,10.8-1.9c1.8-0.3,3.6-0.6,5.4-0.8c0.9-0.1,3.4-0.4-0.6,0.1c1.4-0.2,2.7-0.3,4.1-0.5
			c7.8-0.9,15.7-1.5,23.6-1.8c15.6-0.6,31.3,0,46.8,1.9c1.1,0.1,2.3,0.3,3.4,0.4c-0.6-0.1-3.8-0.6-0.6-0.1c1.8,0.3,3.6,0.5,5.4,0.8
			c3.8,0.6,7.6,1.3,11.4,2.1c7.5,1.5,15,3.3,22.4,5.4c7.3,2.1,14.6,4.4,21.7,7c3.6,1.3,7.1,2.7,10.6,4.1c0.8,0.3,3.1,1.3-0.5-0.2
			c0.8,0.4,1.6,0.7,2.4,1.1c1.8,0.8,3.6,1.6,5.5,2.4c13.6,6.3,26.8,13.6,39.3,21.8c2.9,1.9,5.8,3.9,8.7,5.9c1.6,1.1,3.2,2.3,4.8,3.5
			c0.7,0.5,1.4,1,2.1,1.6c0.4,0.3,3.4,2.6,1.4,1c-1.9-1.4,0.4,0.3,0.8,0.6c0.7,0.5,1.4,1.1,2.1,1.6c1.4,1.1,2.7,2.2,4.1,3.3
			c3,2.5,6,5.1,8.9,7.7c11.1,9.9,21.4,20.7,30.9,32.1c1.1,1.3,2.2,2.7,3.3,4.1c0.5,0.7,1.1,1.4,1.6,2.1c0.4,0.5,2.1,2.7,0.6,0.8
			c-1.4-1.9,0.3,0.4,0.6,0.8c0.5,0.7,1.1,1.4,1.6,2.1c1.3,1.8,2.6,3.5,3.9,5.3c4.3,6.1,8.4,12.4,12.2,18.8
			c3.7,6.2,7.3,12.6,10.6,19.1c1.7,3.4,3.3,6.7,4.9,10.2c0.7,1.6,1.5,3.2,2.2,4.8c0.4,0.8,0.7,1.6,1.1,2.4c0.9,2-1.2-3,0,0.1
			c5.7,14.2,10.5,28.6,14.1,43.4c1.8,7.5,3.3,15.1,4.6,22.7c0.3,1.8,0.6,3.6,0.8,5.4c0.5,3.3,0,0-0.1-0.6c0.1,1.1,0.3,2.3,0.4,3.4
			c0.5,3.9,0.8,7.8,1.1,11.7c0.6,7.9,0.9,15.9,0.9,23.8c0,9.5,8,17.5,17.5,17.5c40.9,0,81.9,0,122.8,0c5.7,0,11.5,0,17.2,0
			c9.2,0,17.9-8,17.5-17.5C919.4,450.4,912.1,442.4,902.3,442.4z"/>
	</g>
</g>
<g id="XMLID_9_">
	<g id="XMLID_67_">
		<path id="XMLID_71_" class="st4" d="M627.4,104c-11-3.4-22.9,5-22.9,16.7c0,6.6,3.8,12.5,9.6,15.6c3.1,1.7,6.5,3,9.7,4.6
			c14.9,7.3,29.3,15.5,43.2,24.4c9.9,6.3,19.4,13.1,28.8,20.2c2.7,2-2.8-2.2-1-0.8c0.6,0.5,1.2,1,1.8,1.4c1.2,1,2.5,2,3.7,2.9
			c2.6,2.1,5.2,4.3,7.8,6.4c5.2,4.4,10.3,9,15.2,13.6c10.5,9.9,20.4,20.5,29.5,31.6c1.2,1.4,2.3,2.8,3.4,4.3
			c0.3,0.4,0.9,1.4,1.4,1.7c-2.9-2-1.3-1.7-0.1,0c2.2,3,4.4,6,6.5,9c4.6,6.5,8.8,13.2,12.8,20.1c4.5,7.7,8.6,15.7,12.4,23.8
			c0.3,0.7,0.7,1.4,1,2.2c0.2,0.5,2.2,4.9,1,2.3c-1.2-2.7,0.4,0.9,0.5,1.2c0.5,1.1,0.9,2.2,1.3,3.4c1.8,4.5,3.4,9.1,4.9,13.7
			c2.9,8.9,5.3,18,7.3,27.2c1,4.9,1.9,9.8,2.6,14.7c0,0.2,0.6,4.5,0.2,1.6c-0.3-2.8,0.3,2.5,0.3,2.9c0.3,2.7,0.5,5.3,0.8,8
			c0.8,9.1,7.5,17.9,17.5,17.5c8.8-0.4,18.3-7.7,17.5-17.5c-5.5-66.4-34.5-126.7-79.4-175.4c-31.1-33.7-68.9-61.7-109.2-83.5
			c-5.9-3.2-11.8-6.2-17.8-9.1c-1.7-0.8-3.4-1.6-5-2.4c-2.9-1.4-1.8-2,1.6,1.8c1.5,2.6,3,5.1,4.5,7.7c0,0,0,0,0,0
			c-0.6,4.5-1.2,9-1.8,13.5c0,0,0,0,0,0c-3.5,2.7-7,5.4-10.5,8c-3,0.8-6.7,0.2-9,0c0.1,0,0.3,0.1,0.5,0.1
			c8.8,2.7,19.5-3.2,21.5-12.2C641.8,116.1,636.8,106.9,627.4,104L627.4,104z"/>
	</g>
</g>
<g id="XMLID_11_">
	<g id="XMLID_74_">
		<path id="XMLID_78_" class="st4" d="M456.4,100.7c2.8-0.7,5.7-1.1,8.6-1.6c3-0.5-1.2,0.4-1.8,0.2c0.6,0.1,2.1-0.3,2.7-0.3
			c1.7-0.2,3.4-0.3,5.1-0.5c4.5-0.4,8.9-0.6,13.4-0.6c5,0,10.1,0.1,15.1,0.5c2.9,0.2,5.8,0.5,8.7,0.8c3.3,0.4-1-0.2,1.1,0.1
			c1.4,0.3,2.8,0.4,4.2,0.7c6.4,1.1,12.8,2.6,19,4.5c6.5,1.9,12.6,4.2,17.3,6.4c8.3,3.8,19.2,2.6,23.9-6.3
			c4.1-7.7,2.6-19.9-6.3-23.9C531,64,486.7,57.5,447.1,67c-8.9,2.1-15.1,12.7-12.2,21.5C437.9,97.8,446.9,103,456.4,100.7
			L456.4,100.7z"/>
	</g>
</g>
<g id="XMLID_12_">
	<g id="XMLID_88_">
		<path id="XMLID_92_" class="st4" d="M306.7,820.7c11,3.4,22.9-5,22.9-16.7c0-6.6-3.8-12.5-9.6-15.6c-3.1-1.7-6.5-3-9.7-4.6
			c-14.9-7.3-29.3-15.5-43.2-24.4c-9.9-6.3-19.4-13.1-28.8-20.2c-2.7-2,2.8,2.2,1,0.8c-0.6-0.5-1.2-1-1.8-1.4c-1.2-1-2.5-2-3.7-2.9
			c-2.6-2.1-5.2-4.3-7.8-6.4c-5.2-4.4-10.3-9-15.2-13.6c-10.5-9.9-20.4-20.5-29.5-31.6c-1.2-1.4-2.3-2.8-3.4-4.3
			c-0.3-0.4-0.9-1.4-1.4-1.7c2.9,2,1.3,1.7,0.1,0c-2.2-3-4.4-6-6.5-9c-4.6-6.5-8.8-13.2-12.8-20.1c-4.5-7.7-8.6-15.7-12.4-23.8
			c-0.3-0.7-0.7-1.4-1-2.2c-0.2-0.5-2.2-4.9-1-2.3c1.2,2.7-0.4-0.9-0.5-1.2c-0.5-1.1-0.9-2.2-1.3-3.4c-1.8-4.5-3.4-9.1-4.9-13.7
			c-2.9-8.9-5.4-18-7.3-27.2c-1-4.9-1.9-9.8-2.6-14.7c0-0.2-0.6-4.5-0.2-1.6c0.3,2.8-0.3-2.5-0.3-2.9c-0.3-2.7-0.5-5.3-0.8-8
			c-0.8-9.1-7.5-17.9-17.5-17.5c-8.8,0.4-18.3,7.7-17.5,17.5c5.5,66.4,34.5,126.7,79.4,175.4c31.1,33.7,68.9,61.7,109.2,83.5
			c5.9,3.2,11.8,6.2,17.8,9.1c1.7,0.8,3.4,1.6,5,2.4c2.9,1.4,1.8,2-1.6-1.8c-1.5-2.6-3-5.1-4.5-7.7c0,0,0,0,0,0
			c0.6-4.5,1.2-9,1.8-13.5c0,0,0,0,0,0c3.5-2.7,7-5.4,10.5-8c3-0.8,6.7-0.2,9,0c-0.1,0-0.3-0.1-0.5-0.1c-8.8-2.7-19.5,3.2-21.5,12.2
			C292.3,808.6,297.3,817.8,306.7,820.7L306.7,820.7z"/>
	</g>
</g>
<g id="XMLID_3_">
	<g id="XMLID_83_">
		<path id="XMLID_87_" class="st4" d="M477.7,823.9c-2.8,0.7-5.7,1.1-8.6,1.6c-3,0.5,1.2-0.4,1.8-0.2c-0.6-0.1-2.1,0.3-2.7,0.3
			c-1.7,0.2-3.4,0.3-5.1,0.5c-4.5,0.4-8.9,0.6-13.4,0.6c-5,0-10.1-0.1-15.1-0.5c-2.9-0.2-5.8-0.5-8.7-0.8c-3.3-0.4,1,0.2-1.1-0.1
			c-1.4-0.3-2.8-0.4-4.2-0.7c-6.4-1.1-12.8-2.6-19-4.5c-6.5-1.9-12.6-4.2-17.3-6.4c-8.3-3.8-19.2-2.6-23.9,6.3
			c-4.1,7.7-2.6,19.9,6.3,23.9c36.6,16.8,80.8,23.3,120.5,13.8c8.9-2.1,15.1-12.7,12.2-21.5C496.2,826.9,487.2,821.6,477.7,823.9
			L477.7,823.9z"/>
	</g>
</g>
</svg>
