<?xml version="1.0" encoding="utf-8"?>
<!-- Generator: Adobe Illustrator 19.0.0, SVG Export Plug-In . SVG Version: 6.00 Build 0)  -->
<svg version="1.1" id="Capa_1" xmlns="http://www.w3.org/2000/svg" xmlns:xlink="http://www.w3.org/1999/xlink" x="0px" y="0px"
	 viewBox="0 0 110.6 140.8" style="enable-background:new 0 0 110.6 140.8;" xml:space="preserve">
<style type="text/css">
	.st0{fill:#6DBE9E;}
	.st1{fill:#DFDFDF;}
	.st2{fill:#5C3289;}
	.st3{fill:#343077;}
</style>
<g>
	<g>
		<path class="st0" d="M55.2,32.7C26,32.7,2.4,56.4,2.4,85.6c0,29.2,23.7,52.8,52.8,52.8c29.2,0,52.8-23.7,52.8-52.8
			C108.1,56.4,84.4,32.7,55.2,32.7z M55.2,124.3c-21.4,0-38.8-17.3-38.8-38.8c0-21.4,17.3-38.8,38.8-38.8C76.6,46.8,94,64.2,94,85.6
			C94,107,76.6,124.3,55.2,124.3z"/>
	</g>
</g>
<path class="st1" d="M10.8,104.1c0.4-0.4,1.1-0.2,1.2,0.3c0.3,1.4,1.2,3.9,3.4,6.8c0.9,0.4,1.2,1.8,1.9,2.3c1.1,0.9,1.9,1.7,2.2,1.9
	c0.1,0.1,0.1,0.1,0.2,0.2c0.4,1,4.1,8,20.8,18.1c0.8,0.5,0.2,1.6-0.6,1.3c-6.4-2.6-13.8-6.8-14.7-7.3c-0.1,0-0.1-0.1-0.2-0.1
	L7.5,108.5c-0.3-0.3-0.2-0.7,0-1L10.8,104.1z"/>
<g>
	<path class="st1" d="M58.7,46.6c-0.6,0-1.2,0-1.9,0c20.5,1,36.9,17.9,36.9,38.7c0,21.4-17.3,38.8-38.8,38.8
		c-11.6,0-21.9-5.1-29-13.1c7.4,10.1,19.3,16.6,32.7,16.6c22.4,0,40.5-18.1,40.5-40.5S81.1,46.6,58.7,46.6z"/>
</g>
<path class="st1" d="M18.4,103c0,0-2.7,7.3-3.1,8.6l4.3,3.9c0.1-1.1,4.5-7,4.5-7c0.4-0.7-0.2-1.6-1-1.6l-3.2-1.7
	C19.5,105.2,19.5,104.2,18.4,103z"/>
<polygon class="st1" points="35.5,50.4 45,35.4 29.5,39.4 9.5,58.1 2.5,75.9 2.5,91.2 5,101.2 9,111.4 15.6,95.9 14.5,86 16.3,78.8 
	20.4,67.3 26.3,59.3 "/>
<path class="st1" d="M47.3,40.3l-3.8,6c-0.5,0.8,0.2,1.8,1.1,1.6l7.3-1.3c0.3-0.1,0.6-0.3,0.8-0.5l2.8-5.2c0.4-0.7-0.2-1.6-1-1.6
	l-5.3-1.5C48.7,37.8,47.4,40,47.3,40.3z"/>
<polygon class="st0" points="45.7,27.8 38.9,22.2 37.9,13.3 40.3,7.5 45.7,3.8 54.3,1.8 60.6,1.8 65.1,3.5 68.6,8.6 71.6,13.3 
	70.9,18.3 70.1,21.5 67.3,25.8 63.5,27.8 61.3,22.7 62.6,14.8 59.6,10.5 52.5,9.2 48.5,13.5 48,17.8 47.5,24.1 "/>
<path class="st2" d="M53,19.1l6.1,1l2.4,3.3l1,5.6l-1,3.3l-8.3,0.4L47,32.5c0,0-0.9-3-0.9-3.2c0-0.2,1.5-5,1.5-5l2.4-4.6L53,19.1z"
	/>
<g>
	<g>
		<path class="st3" d="M53.3,52.9c0,2,0,4,0,6c0,1.9,3,1.9,3,0c0-2,0-4,0-6C56.3,50.9,53.3,50.9,53.3,52.9L53.3,52.9z"/>
	</g>
</g>
<g>
	<g>
		<path class="st3" d="M53.3,111.9c0,2,0,4,0,6c0,1.9,3,1.9,3,0c0-2,0-4,0-6C56.3,109.9,53.3,109.9,53.3,111.9L53.3,111.9z"/>
	</g>
</g>
<g>
	<g>
		<path class="st3" d="M31.1,63.7c1.4,1.4,2.8,2.8,4.2,4.2c1.4,1.4,3.5-0.8,2.1-2.1c-1.4-1.4-2.8-2.8-4.2-4.2
			C31.8,60.2,29.7,62.3,31.1,63.7L31.1,63.7z"/>
	</g>
</g>
<g>
	<g>
		<path class="st3" d="M72.8,105.5c1.4,1.4,2.8,2.8,4.2,4.2c1.4,1.4,3.5-0.8,2.1-2.1c-1.4-1.4-2.8-2.8-4.2-4.2
			C73.6,102,71.4,104.1,72.8,105.5L72.8,105.5z"/>
	</g>
</g>
<g>
	<g>
		<path class="st3" d="M76.5,61.6c-1.4,1.4-2.8,2.8-4.2,4.2c-1.4,1.4,0.8,3.5,2.1,2.1c1.4-1.4,2.8-2.8,4.2-4.2
			C79.9,62.3,77.8,60.2,76.5,61.6L76.5,61.6z"/>
	</g>
</g>
<g>
	<g>
		<path class="st3" d="M35.3,103.3c-1.4,1.4-2.8,2.8-4.2,4.2c-1.4,1.4,0.8,3.5,2.1,2.1c1.4-1.4,2.8-2.8,4.2-4.2
			C38.8,104.1,36.7,102,35.3,103.3L35.3,103.3z"/>
	</g>
</g>
<g>
	<g>
		<path class="st3" d="M22,87.1c2,0,4,0,6,0c1.9,0,1.9-3,0-3c-2,0-4,0-6,0C20.1,84.1,20.1,87.1,22,87.1L22,87.1z"/>
	</g>
</g>
<g>
	<g>
		<path class="st3" d="M81.7,87.1c2,0,4,0,6,0c1.9,0,1.9-3,0-3c-2,0-4,0-6,0C79.7,84.1,79.7,87.1,81.7,87.1L81.7,87.1z"/>
	</g>
</g>
<g>
	<g>
		<path class="st3" d="M47.8,33.5c-0.7-5.1,0-13.1,6.6-13.4c1.9-0.1,1.9-3.1,0-3c-8.4,0.3-10.6,9.3-9.6,16.4
			C45,35.4,48,35.4,47.8,33.5L47.8,33.5z"/>
	</g>
</g>
<g>
	<g>
		<path class="st3" d="M64,33.5c0.9-7-1.2-16.1-9.6-16.4c-1.9-0.1-1.9,2.9,0,3c6.6,0.2,7.3,8.2,6.6,13.4
			C60.8,35.4,63.8,35.4,64,33.5L64,33.5z"/>
	</g>
</g>
<g>
	<g>
		<path class="st3" d="M46.5,26.7c-7.1-1.5-8.6-10.5-5.7-16.2c2.4-4.8,8.4-7.3,13.6-7.5c1.9-0.1,1.9-3.1,0-3
			c-7.2,0.3-14.9,4.2-17.2,11.4c-2.2,7.1,0.4,16.5,8.5,18.2C47.6,30,48.4,27.1,46.5,26.7L46.5,26.7z"/>
	</g>
</g>
<g>
	<g>
		<path class="st3" d="M63.5,29.6c7.9-1.7,10.6-10.7,8.6-17.7C70.1,4.5,62.6,0.3,55.2,0c-1.9-0.1-1.9,2.9,0,3
			c5.4,0.2,11.3,3,13.5,8.2c2.4,5.7,0.9,14-6,15.4C60.8,27.1,61.6,30,63.5,29.6L63.5,29.6z"/>
	</g>
</g>
<g>
	<g>
		<path class="st3" d="M49.5,21c-0.5-1.1-1.2-3.3-1.2-4.9c-0.2-4.1,2.7-5.6,6.5-5.6c1.9,0,1.9-3,0-3c-4.7,0.1-9,2-9.5,7.2
			c-0.2,2.7,0.5,5.5,1.6,7.9C47.7,24.3,50.3,22.8,49.5,21L49.5,21z"/>
	</g>
</g>
<g>
	<g>
		<path class="st3" d="M62.4,22.6c1.1-2.4,1.9-5.2,1.6-7.9c-0.5-5.1-4.8-7.1-9.5-7.2c-1.9,0-1.9,3,0,3c3.8,0.1,6.7,1.5,6.5,5.6
			c-0.1,1.6-0.7,3.8-1.2,4.9C59,22.8,61.6,24.3,62.4,22.6L62.4,22.6z"/>
	</g>
</g>
<g>
	<g>
		<path class="st3" d="M77.8,95.5c-5-2.8-9.9-5.7-14.9-8.5c-2.8-1.6-5.3,2.7-2.5,4.3c5,2.8,9.9,5.7,14.9,8.5
			C78.1,101.4,80.6,97.1,77.8,95.5L77.8,95.5z"/>
	</g>
</g>
<g>
	<g>
		<path class="st3" d="M50,79.6c-1.9-1.1-3.9-2.2-5.8-3.3c-2.8-1.6-5.3,2.7-2.5,4.3c1.9,1.1,3.9,2.2,5.8,3.3
			C50.3,85.5,52.8,81.2,50,79.6L50,79.6z"/>
	</g>
</g>
<g>
	<g>
		<path class="st3" d="M105.6,85.6C105.3,106.7,92.1,126,72,133c-19.7,6.9-42.1,0.8-55.5-15.3C3,101.6,1.2,77.9,12,59.8
			c10.9-18.2,32.7-27.9,53.6-23.5C88.8,41.2,105.3,62,105.6,85.6c0,3.2,5,3.2,5,0c-0.3-22.9-14.4-43.7-36-51.8
			c-21.8-8.2-47.3-1.4-62,16.6C-2.1,68.2-4.2,94,7.7,113.9c11.8,19.8,35.2,30.2,57.9,26.1c26.1-4.8,44.7-28.2,45-54.4
			C110.6,82.3,105.6,82.3,105.6,85.6z"/>
	</g>
</g>
<g>
	<g>
		<path class="st3" d="M91.5,85.6c-0.3,15-9.4,28.8-23.7,34c-14.3,5.3-30.6,0.8-40.4-10.8C17.6,97.2,16.3,80.1,24,67.1
			c7.7-13,23.1-20,38-17.1C79.1,53.2,91.2,68.3,91.5,85.6c0.1,3.2,5.1,3.2,5,0c-0.3-17.3-10.9-32.9-27.3-38.8
			C53,40.9,34.4,46.1,23.5,59.3c-11.1,13.4-12.6,33-3.4,47.9c8.9,14.4,26,22,42.7,19c19.6-3.5,33.4-21,33.8-40.6
			C96.5,82.3,91.5,82.3,91.5,85.6z"/>
	</g>
</g>
<g>
	<g>
		<path class="st3" d="M48.4,33.4c-0.7-5.1,0-13.1,6.6-13.4c1.9-0.1,1.9-3.1,0-3c-8.4,0.3-10.6,9.3-9.6,16.4
			C45.6,35.3,48.6,35.3,48.4,33.4L48.4,33.4z"/>
	</g>
</g>
<g>
	<g>
		<path class="st3" d="M64.6,33.4c0.9-7-1.2-16.1-9.6-16.4c-1.9-0.1-1.9,2.9,0,3c6.6,0.2,7.3,8.2,6.6,13.4
			C61.4,35.3,64.4,35.3,64.6,33.4L64.6,33.4z"/>
	</g>
</g>
<g>
	<g>
		<path class="st3" d="M47.1,26.6c-7.1-1.5-8.6-10.5-5.7-16.2C43.9,5.6,50,3.2,55.2,3c1.9-0.1,1.9-3.1,0-3C48,0.3,40.2,4,37.8,11.3
			c-2.3,7.1,0.4,16.5,8.5,18.2C48.2,29.9,49,27,47.1,26.6L47.1,26.6z"/>
	</g>
</g>
<g>
	<g>
		<path class="st3" d="M64.1,29.5c8.1-1.7,10.7-11.1,8.5-18.2C70.3,4,62.4,0.3,55.2,0c-1.9-0.1-1.9,2.9,0,3
			c5.2,0.2,11.3,2.6,13.8,7.4c3,5.7,1.4,14.7-5.7,16.2C61.5,27,62.3,29.9,64.1,29.5L64.1,29.5z"/>
	</g>
</g>
<g>
	<g>
		<path class="st3" d="M50.1,21c-0.5-1.1-1.2-3.3-1.2-4.9c-0.2-4.1,2.7-5.6,6.5-5.6c1.9,0,1.9-3,0-3c-4.7,0.1-9,2-9.5,7.2
			c-0.2,2.7,0.5,5.5,1.6,7.9C48.3,24.2,50.9,22.7,50.1,21L50.1,21z"/>
	</g>
</g>
<g>
	<g>
		<path class="st3" d="M63,22.5c1.1-2.4,1.9-5.2,1.6-7.9c-0.5-5.1-4.8-7.1-9.5-7.2c-1.9,0-1.9,3,0,3c3.8,0.1,6.7,1.5,6.5,5.6
			c-0.1,1.6-0.7,3.8-1.2,4.9C59.6,22.7,62.2,24.2,63,22.5L63,22.5z"/>
	</g>
</g>
<g>
	<circle class="st2" cx="55.2" cy="85.6" r="6.8"/>
	<g>
		<path class="st3" d="M60.1,85.6c-0.3,6.2-9.7,6.2-9.7,0C50.4,79.3,59.7,79.4,60.1,85.6c0.1,2.6,4.1,2.6,4,0
			c-0.3-4.8-3.8-8.8-8.8-8.8c-4.8,0-8.8,4-8.8,8.8c0,4.7,3.8,8.6,8.5,8.8c5.1,0.2,8.9-3.9,9.2-8.8C64.2,83,60.2,83,60.1,85.6z"/>
	</g>
</g>
</svg>
